<?xml version="1.0" encoding="UTF-8"?><svg xmlns="http://www.w3.org/2000/svg" xmlns:xlink="http://www.w3.org/1999/xlink" fill-opacity="1" color-rendering="auto" color-interpolation="auto" text-rendering="auto" stroke="black" stroke-linecap="square" width="360" stroke-miterlimit="10" shape-rendering="auto" stroke-opacity="1" fill="black" stroke-dasharray="none" font-weight="normal" stroke-width="1" height="340" font-family="'Dialog'" font-style="normal" stroke-linejoin="miter" font-size="12px" stroke-dashoffset="0" image-rendering="auto">
  <!--Generated by ySVG 2.5-->
  <defs id="genericDefs"/>
  <g>
    <defs id="defs1">
      <clipPath clipPathUnits="userSpaceOnUse" id="clipPath1">
        <path d="M0 0 L360 0 L360 340 L0 340 L0 0 Z"/>
      </clipPath>
      <clipPath clipPathUnits="userSpaceOnUse" id="clipPath2">
        <path d="M-15 -15 L345 -15 L345 325 L-15 325 L-15 -15 Z"/>
      </clipPath>
    </defs>
    <g fill="white" text-rendering="geometricPrecision" shape-rendering="geometricPrecision" transform="translate(15,15)" stroke="white">
      <rect x="-15" width="360" height="340" y="-15" clip-path="url(#clipPath2)" stroke="none"/>
    </g>
    <g fill="rgb(153,204,0)" text-rendering="geometricPrecision" shape-rendering="geometricPrecision" transform="matrix(1,0,0,1,15,15)" stroke="rgb(153,204,0)">
      <rect x="145" width="40" height="30" y="0" clip-path="url(#clipPath2)" stroke="none"/>
    </g>
    <g text-rendering="geometricPrecision" stroke-miterlimit="1.45" shape-rendering="geometricPrecision" transform="matrix(1,0,0,1,15,15)" stroke-linecap="butt">
      <rect fill="none" x="145" width="40" height="30" y="0" clip-path="url(#clipPath2)"/>
      <text x="147.7207" xml:space="preserve" y="19.1543" clip-path="url(#clipPath2)" font-family="sans-serif" stroke="none">ROOT</text>
    </g>
    <g fill="rgb(255,204,0)" text-rendering="geometricPrecision" shape-rendering="geometricPrecision" transform="matrix(1,0,0,1,15,15)" stroke="rgb(255,204,0)">
      <rect x="275" width="30" height="30" y="70" clip-path="url(#clipPath2)" stroke="none"/>
    </g>
    <g text-rendering="geometricPrecision" stroke-miterlimit="1.45" shape-rendering="geometricPrecision" transform="matrix(1,0,0,1,15,15)" stroke-linecap="butt">
      <rect fill="none" x="275" width="30" height="30" y="70" clip-path="url(#clipPath2)"/>
      <text x="286.1826" xml:space="preserve" y="89.1543" clip-path="url(#clipPath2)" font-family="sans-serif" stroke="none">2</text>
    </g>
    <g fill="rgb(255,204,0)" text-rendering="geometricPrecision" shape-rendering="geometricPrecision" transform="matrix(1,0,0,1,15,15)" stroke="rgb(255,204,0)">
      <rect x="300" width="30" height="30" y="140" clip-path="url(#clipPath2)" stroke="none"/>
    </g>
    <g text-rendering="geometricPrecision" stroke-miterlimit="1.45" shape-rendering="geometricPrecision" transform="matrix(1,0,0,1,15,15)" stroke-linecap="butt">
      <rect fill="none" x="300" width="30" height="30" y="140" clip-path="url(#clipPath2)"/>
      <text x="311.1826" xml:space="preserve" y="159.1543" clip-path="url(#clipPath2)" font-family="sans-serif" stroke="none">3</text>
    </g>
    <g fill="rgb(255,204,0)" text-rendering="geometricPrecision" shape-rendering="geometricPrecision" transform="matrix(1,0,0,1,15,15)" stroke="rgb(255,204,0)">
      <rect x="150" width="30" height="30" y="70" clip-path="url(#clipPath2)" stroke="none"/>
    </g>
    <g text-rendering="geometricPrecision" stroke-miterlimit="1.45" shape-rendering="geometricPrecision" transform="matrix(1,0,0,1,15,15)" stroke-linecap="butt">
      <rect fill="none" x="150" width="30" height="30" y="70" clip-path="url(#clipPath2)"/>
      <text x="161.1826" xml:space="preserve" y="89.1543" clip-path="url(#clipPath2)" font-family="sans-serif" stroke="none">4</text>
    </g>
    <g fill="rgb(255,204,0)" text-rendering="geometricPrecision" shape-rendering="geometricPrecision" transform="matrix(1,0,0,1,15,15)" stroke="rgb(255,204,0)">
      <rect x="200" width="30" height="30" y="140" clip-path="url(#clipPath2)" stroke="none"/>
    </g>
    <g text-rendering="geometricPrecision" stroke-miterlimit="1.45" shape-rendering="geometricPrecision" transform="matrix(1,0,0,1,15,15)" stroke-linecap="butt">
      <rect fill="none" x="200" width="30" height="30" y="140" clip-path="url(#clipPath2)"/>
      <text x="211.1826" xml:space="preserve" y="159.1543" clip-path="url(#clipPath2)" font-family="sans-serif" stroke="none">5</text>
    </g>
    <g fill="rgb(255,204,0)" text-rendering="geometricPrecision" shape-rendering="geometricPrecision" transform="matrix(1,0,0,1,15,15)" stroke="rgb(255,204,0)">
      <rect x="150" width="30" height="30" y="140" clip-path="url(#clipPath2)" stroke="none"/>
    </g>
    <g text-rendering="geometricPrecision" stroke-miterlimit="1.45" shape-rendering="geometricPrecision" transform="matrix(1,0,0,1,15,15)" stroke-linecap="butt">
      <rect fill="none" x="150" width="30" height="30" y="140" clip-path="url(#clipPath2)"/>
      <text x="161.1826" xml:space="preserve" y="159.1543" clip-path="url(#clipPath2)" font-family="sans-serif" stroke="none">6</text>
    </g>
    <g fill="rgb(255,204,0)" text-rendering="geometricPrecision" shape-rendering="geometricPrecision" transform="matrix(1,0,0,1,15,15)" stroke="rgb(255,204,0)">
      <rect x="300" width="30" height="30" y="210" clip-path="url(#clipPath2)" stroke="none"/>
    </g>
    <g text-rendering="geometricPrecision" stroke-miterlimit="1.45" shape-rendering="geometricPrecision" transform="matrix(1,0,0,1,15,15)" stroke-linecap="butt">
      <rect fill="none" x="300" width="30" height="30" y="210" clip-path="url(#clipPath2)"/>
      <text x="311.1826" xml:space="preserve" y="229.1543" clip-path="url(#clipPath2)" font-family="sans-serif" stroke="none">7</text>
    </g>
    <g fill="rgb(255,204,0)" text-rendering="geometricPrecision" shape-rendering="geometricPrecision" transform="matrix(1,0,0,1,15,15)" stroke="rgb(255,204,0)">
      <rect x="25" width="30" height="30" y="70" clip-path="url(#clipPath2)" stroke="none"/>
    </g>
    <g text-rendering="geometricPrecision" stroke-miterlimit="1.45" shape-rendering="geometricPrecision" transform="matrix(1,0,0,1,15,15)" stroke-linecap="butt">
      <rect fill="none" x="25" width="30" height="30" y="70" clip-path="url(#clipPath2)"/>
      <text x="36.1826" xml:space="preserve" y="89.1543" clip-path="url(#clipPath2)" font-family="sans-serif" stroke="none">8</text>
    </g>
    <g fill="rgb(255,204,0)" text-rendering="geometricPrecision" shape-rendering="geometricPrecision" transform="matrix(1,0,0,1,15,15)" stroke="rgb(255,204,0)">
      <rect x="250" width="30" height="30" y="140" clip-path="url(#clipPath2)" stroke="none"/>
    </g>
    <g text-rendering="geometricPrecision" stroke-miterlimit="1.45" shape-rendering="geometricPrecision" transform="matrix(1,0,0,1,15,15)" stroke-linecap="butt">
      <rect fill="none" x="250" width="30" height="30" y="140" clip-path="url(#clipPath2)"/>
      <text x="261.1826" xml:space="preserve" y="159.1543" clip-path="url(#clipPath2)" font-family="sans-serif" stroke="none">9</text>
    </g>
    <g fill="rgb(255,204,0)" text-rendering="geometricPrecision" shape-rendering="geometricPrecision" transform="matrix(1,0,0,1,15,15)" stroke="rgb(255,204,0)">
      <rect x="100" width="30" height="30" y="140" clip-path="url(#clipPath2)" stroke="none"/>
    </g>
    <g text-rendering="geometricPrecision" stroke-miterlimit="1.45" shape-rendering="geometricPrecision" transform="matrix(1,0,0,1,15,15)" stroke-linecap="butt">
      <rect fill="none" x="100" width="30" height="30" y="140" clip-path="url(#clipPath2)"/>
      <text x="107.3652" xml:space="preserve" y="159.1543" clip-path="url(#clipPath2)" font-family="sans-serif" stroke="none">10</text>
    </g>
    <g fill="rgb(255,204,0)" text-rendering="geometricPrecision" shape-rendering="geometricPrecision" transform="matrix(1,0,0,1,15,15)" stroke="rgb(255,204,0)">
      <rect x="50" width="30" height="30" y="140" clip-path="url(#clipPath2)" stroke="none"/>
    </g>
    <g text-rendering="geometricPrecision" stroke-miterlimit="1.45" shape-rendering="geometricPrecision" transform="matrix(1,0,0,1,15,15)" stroke-linecap="butt">
      <rect fill="none" x="50" width="30" height="30" y="140" clip-path="url(#clipPath2)"/>
      <text x="57.3652" xml:space="preserve" y="159.1543" clip-path="url(#clipPath2)" font-family="sans-serif" stroke="none">11</text>
    </g>
    <g fill="rgb(255,204,0)" text-rendering="geometricPrecision" shape-rendering="geometricPrecision" transform="matrix(1,0,0,1,15,15)" stroke="rgb(255,204,0)">
      <rect x="150" width="30" height="30" y="210" clip-path="url(#clipPath2)" stroke="none"/>
    </g>
    <g text-rendering="geometricPrecision" stroke-miterlimit="1.45" shape-rendering="geometricPrecision" transform="matrix(1,0,0,1,15,15)" stroke-linecap="butt">
      <rect fill="none" x="150" width="30" height="30" y="210" clip-path="url(#clipPath2)"/>
      <text x="157.3652" xml:space="preserve" y="229.1543" clip-path="url(#clipPath2)" font-family="sans-serif" stroke="none">12</text>
    </g>
    <g fill="rgb(255,204,0)" text-rendering="geometricPrecision" shape-rendering="geometricPrecision" transform="matrix(1,0,0,1,15,15)" stroke="rgb(255,204,0)">
      <rect x="50" width="30" height="30" y="210" clip-path="url(#clipPath2)" stroke="none"/>
    </g>
    <g text-rendering="geometricPrecision" stroke-miterlimit="1.45" shape-rendering="geometricPrecision" transform="matrix(1,0,0,1,15,15)" stroke-linecap="butt">
      <rect fill="none" x="50" width="30" height="30" y="210" clip-path="url(#clipPath2)"/>
      <text x="57.3652" xml:space="preserve" y="229.1543" clip-path="url(#clipPath2)" font-family="sans-serif" stroke="none">13</text>
    </g>
    <g fill="rgb(255,204,0)" text-rendering="geometricPrecision" shape-rendering="geometricPrecision" transform="matrix(1,0,0,1,15,15)" stroke="rgb(255,204,0)">
      <rect x="50" width="30" height="30" y="280" clip-path="url(#clipPath2)" stroke="none"/>
    </g>
    <g text-rendering="geometricPrecision" stroke-miterlimit="1.45" shape-rendering="geometricPrecision" transform="matrix(1,0,0,1,15,15)" stroke-linecap="butt">
      <rect fill="none" x="50" width="30" height="30" y="280" clip-path="url(#clipPath2)"/>
      <text x="57.3652" xml:space="preserve" y="299.1543" clip-path="url(#clipPath2)" font-family="sans-serif" stroke="none">14</text>
    </g>
    <g fill="rgb(255,204,0)" text-rendering="geometricPrecision" shape-rendering="geometricPrecision" transform="matrix(1,0,0,1,15,15)" stroke="rgb(255,204,0)">
      <rect x="0" width="30" height="30" y="140" clip-path="url(#clipPath2)" stroke="none"/>
    </g>
    <g text-rendering="geometricPrecision" stroke-miterlimit="1.45" shape-rendering="geometricPrecision" transform="matrix(1,0,0,1,15,15)" stroke-linecap="butt">
      <rect fill="none" x="0" width="30" height="30" y="140" clip-path="url(#clipPath2)"/>
      <text x="7.3652" xml:space="preserve" y="159.1543" clip-path="url(#clipPath2)" font-family="sans-serif" stroke="none">15</text>
      <path fill="none" d="M185 26.2 L268.02 72.6912" clip-path="url(#clipPath2)"/>
      <path d="M275 76.6 L266.973 66.3742 L267.1475 72.2026 L262.0869 75.0993 Z" clip-path="url(#clipPath2)" stroke="none"/>
      <path fill="none" d="M295.3571 100 L306.9522 132.4661" clip-path="url(#clipPath2)"/>
      <path d="M309.6429 140 L310.3156 127.0174 L306.6158 131.5243 L300.8981 130.3808 Z" clip-path="url(#clipPath2)" stroke="none"/>
      <path fill="none" d="M165 30 L165 62" clip-path="url(#clipPath2)"/>
      <path d="M165 70 L170 58 L165 61 L160 58 Z" clip-path="url(#clipPath2)" stroke="none"/>
      <path fill="none" d="M175.7143 100 L199.6358 133.4901" clip-path="url(#clipPath2)"/>
      <path d="M204.2857 140 L201.3795 127.329 L199.0546 132.6764 L193.2422 133.1414 Z" clip-path="url(#clipPath2)" stroke="none"/>
      <path fill="none" d="M165 100 L165 132" clip-path="url(#clipPath2)"/>
      <path d="M165 140 L170 128 L165 131 L160 128 Z" clip-path="url(#clipPath2)" stroke="none"/>
      <path fill="none" d="M315 170 L315 202" clip-path="url(#clipPath2)"/>
      <path d="M315 210 L320 198 L315 201 L310 198 Z" clip-path="url(#clipPath2)" stroke="none"/>
      <path fill="none" d="M145 26.2 L61.98 72.6912" clip-path="url(#clipPath2)"/>
      <path d="M55 76.6 L67.9131 75.0993 L62.8526 72.2026 L63.0271 66.3742 Z" clip-path="url(#clipPath2)" stroke="none"/>
      <path fill="none" d="M284.6429 100 L273.0478 132.4661" clip-path="url(#clipPath2)"/>
      <path d="M270.3571 140 L279.1019 130.3808 L273.3842 131.5243 L269.6844 127.0174 Z" clip-path="url(#clipPath2)" stroke="none"/>
      <path fill="none" d="M154.2857 100 L130.3642 133.4901" clip-path="url(#clipPath2)"/>
      <path d="M125.7143 140 L136.7578 133.1414 L130.9454 132.6764 L128.6205 127.329 Z" clip-path="url(#clipPath2)" stroke="none"/>
      <path fill="none" d="M45.3571 100 L56.9522 132.4661" clip-path="url(#clipPath2)"/>
      <path d="M59.6429 140 L60.3155 127.0174 L56.6158 131.5243 L50.8981 130.3808 Z" clip-path="url(#clipPath2)" stroke="none"/>
      <path fill="none" d="M165 170 L165 202" clip-path="url(#clipPath2)"/>
      <path d="M165 210 L170 198 L165 201 L160 198 Z" clip-path="url(#clipPath2)" stroke="none"/>
      <path fill="none" d="M65 170 L65 202" clip-path="url(#clipPath2)"/>
      <path d="M65 210 L70 198 L65 201 L60 198 Z" clip-path="url(#clipPath2)" stroke="none"/>
      <path fill="none" d="M65 240 L65 272" clip-path="url(#clipPath2)"/>
      <path d="M65 280 L70 268 L65 271 L60 268 Z" clip-path="url(#clipPath2)" stroke="none"/>
      <path fill="none" d="M34.6429 100 L23.0478 132.4661" clip-path="url(#clipPath2)"/>
      <path d="M20.3571 140 L29.1019 130.3808 L23.3842 131.5243 L19.6845 127.0174 Z" clip-path="url(#clipPath2)" stroke="none"/>
    </g>
  </g>
</svg>
