<?xml version="1.0" encoding="UTF-8"?>
<svg width="744.09" height="744.09" viewBox="0 0 744.09448819 1052.3622047" xmlns="http://www.w3.org/2000/svg">
 <path d="m333.91 790c-9.8658-15.612-23.313-44.354-29.593-46.818-6.5491-4.5248-34.083-1.4187-52.119-1.7667-7.958-1.102-16.301-1.3575-18.551-15.017-2.0193-3.0599 2.1496-9.9302 0.88337-24.734-9.6935-7.7236-8.0378-12.61-8.8337-18.109-11.123-3.3351 1.9925-16.781-0.88336-26.501-11.068-5.1964-25.793-9.0864-21.201-19.876" fill="none" stroke="#000"/>
 <path d="m225.26 683.56 22.968 1.325" fill="none" stroke="#000"/>
 <path d="m245.13 680.91 2.2084 7.5086" fill="none" stroke="#000"/>
 <path d="m216.87 648.22c-2.2123-4.0826 1.0559-5.0334 7.067-4.4168 4.9974-0.20109 7.5137 1.0865 6.6253 4.4168" fill="none" stroke="#000"/>
 <path d="m232.55 647.78c5.3083 2.7089 8.304 1.2551 7.7295-6.6253-0.48686-2.3556 0.70154-4.7113-2.4293-7.0669" fill="none" stroke="#000"/>
 <path d="m203.4 637.84 25.397-33.347c5.4452-6.3111 11.781-12.113 9.2754-22.968-1.2159-8.3191-3.9369-17.498-1.325-23.63 3.7124-4.4186 4.0552-8.8956 4.8585-18.551 5.4973-27.897 14.556-42.438 24.734-52.781 20.651-17.908 44.665-26.571 70.007-31.58 12.294-3.0916 24.587-4.2633 36.881-4.4168 23.778 0.71389 39.185 3.939 51.235 8.1712 15.01 5.5817 29.057 12.264 39.972 22.526 15.423 13.839 21.094 27.679 27.384 41.518 6.7355 14.726 6.5657 26.574 6.4044 38.426 1.1773 16.984-3.1122 32.405-10.159 47.039l-22.305 45.273c-2.1741 4.9311-4.9109 9.8623-5.9738 14.793l-3.964 22.087c-2.0734 17.723 0.8982 33.932 4.6377 49.91" fill="none" stroke="#000"/>
 <path d="m349.8 464.58c9.9308 7.4458 4.6632 9.1923 1.8739 11.868-3.0731 1.3389-3.9995 4.2878-3.7478 8.1203l-0.93695 13.742c-22.465 13.393-18.047 15.098-23.112 20.925" fill="none" stroke="#000"/>
 <path d="m336.37 487.38c-5.6278 5.8024-8.3843 12.323-4.0601 20.613h-0.93696" fill="none" stroke="#000"/>
 <path d="m350.42 464.89-6.871-1.8739c-10.589 1.688-12.903 4.7552-19.051 7.1833l-15.616 4.6848c-2.2003 3.0191-1.6411 6.0382 0.31232 9.0572" fill="none" stroke="#000"/>
 <path d="m307.32 478.32c-6.8096 1.1616-11.918 3.7411-13.742 9.0572-13.56 4.5663-20.358 12.889-26.547 21.55l2.1862 4.0601-5.3094-0.62463c-8.9183 8.5323-9.118 15.975-11.868 23.736l1.5616 2.4985-2.8109 1.5616c-1.9189 12.189 4.8196 16.958 8.1203 24.673 5.0518 5.1398 10.671 7.4439 16.553 8.4326 4.893 1.0515 9.786 3.9763 14.679 2.8109 7.0239 0.46658 14.304 0.93315 9.973 1.3997l7.8291 1.0988" fill="none" stroke="#000"/>
 <path d="m275.78 573.58-4.6848 0.62463c-0.32942 0.9699-2.0027 2.0742 1.5616 2.6547 4.2749 1.1452 4.1026 2.2903 3.904 3.4355 1.7178 1.7694 3.4355 2.8446 5.1532 1.7177 6.4656-1.7949 12.843-2.9713 18.895-1.8739l6.871-1.4054" fill="none" stroke="#000"/>
 <path d="m352.61 475.36c-3.6678-0.62717-7.7355-0.7212-12.649 0.31232-3.0611 0.8595-10.758 1.4293-20.457 1.8739-6.5453 0.43877-13.311 9.9543-16.084 14.523 1.7043 2.3943-1.1467 3.1321-3.904 3.904-2.2903 0.0694-4.5807-0.46486-6.871 1.5616 0.79532 1.5538-3.8837 4.8183-9.6818 8.4326l-4.9971 1.0931c-4.6692 3.9638-6.0782 9.5577-8.4326 14.679-0.12342 2.388-4.5107 3.3547-6.871 4.9971-3.1524 2.1291-3.2611 5.5626-3.5916 8.9011" fill="none" stroke="#000"/>
 <path d="m350.89 465.36c0.74255-1.8263 2.9665-3.1139 8.2764-3.2793 3.0637 1.9928 6.6194 3.0017 10.931 2.4985 1.6674 3.8224 0.20637 7.1979-0.93695 10.619-4.015 8.2753-14.686 20.754-11.556 24.517l1.2493 7.8079c-0.94242 8.6587-8.456 12.792-7.1833 21.081l0.62463 7.8079" fill="none" stroke="#000"/>
 <path d="m324.19 518.77c13.285 2.8425 16.588 4.8042 15.772 6.4025 4.54 8.4408 2.9559 12.428 3.2793 17.802" fill="none" stroke="#000"/>
 <path d="m319.81 483.79c-2.4199 5.8166-7.2779 12.852-5.1532 16.397 2.2809 6.8667 5.5137 14.166 3.4355 19.051" fill="none" stroke="#000"/>
 <path d="m290.77 509.09c1.7723 6.5955 4.2782 8.79 6.871 10.463l-0.46847-0.46847" fill="none" stroke="#000"/>
 <path d="m309.04 519.24c-1.1953 2.3959-3.3691 3.8134-5.355 5.4187-4.1588 1.0469-5.517 4.8944-7.7624 7.8548-2.5439-2.5053-4.7632-5.3351-4.8409-10.306" fill="none" stroke="#000"/>
 <path d="m295.76 532.2c2.3428 2.3946 2.8297 4.0468 3.1232 5.6217-12.525 8.9432-9.3256 10.024-9.2134 12.649" fill="none" stroke="#000"/>
 <path d="m283.9 517.36-3.5917 8.7449c1.5124 3.4775 2.5772 8.5218 4.8409 9.3695 2.5014 2.7658 3.6922 5.7189 3.2793 8.901" fill="none" stroke="#000"/>
 <path d="m280.15 525.64c-9.2215-0.19631-9.4117 5.6283-11.556 10.15-0.96866 3.4015-3.3763 4.7885-2.4985 10.775 2.6346 4.0215 1.6672 5.7919 1.0931 7.808" fill="none" stroke="#000"/>
 <path d="m256.26 542.19c2.4265-2.8558 6.4026-2.2252 10.463-1.4054" fill="none" stroke="#000"/>
 <path d="m254.54 545c0.74485 7.4927 3.4943 10.308 6.7148 12.024-0.92488-0.29302-1.0985 1.2921-1.2044 3.0465 1.0414 4.5775-0.54688 3.3695-1.4503 3.6684" fill="none" stroke="#000"/>
 <path d="m260.79 556.87 6.5587-2.967" fill="none" stroke="#000"/>
 <path d="m279.06 541.1c2.5056 6.6387 6.0311 9.8099 10.619 9.3695 5.9626 5.8421 12.375 4.4791 18.739 3.904" fill="none" stroke="#000"/>
 <path d="m369.78 464.27 6.2464-1.0931c8.0215 5.1855 12.719 4.1986 17.958 4.2163 7.5541-0.26552 11.007 2.8244 14.054 6.2464 8.3369 0.93387 15.127 4.3428 21.394 8.5887 10.213 1.4703 15.137 4.5679 14.523 9.3695 11.222 3.7999 11.87 7.5997 14.367 11.4 12.342 5.9861 12.73 11.972 14.679 17.958 13.892 9.4821 15.363 20.791 15.304 32.325 0.42997 5.542-0.53733 14.95-2.9396 18.065l-7.3669 8.6384c-3.9128-0.84821-6.9663-0.19279-9.2134 1.8739-4.9235 19.501-19.733 27.595-35.292 34.823-9.0969 2.0689-19.357 1.7134-33.418-6.5587-4.3103-3.9193-9.1836-7.346-10.306-14.054-5.1036-2.9205-11.927-4.4894-11.556-11.712" fill="none" stroke="#000"/>
 <path d="m443.96 491.44c-5.1794-3e-5 -9.042 0.37615-8.4326 2.0301" fill="none" stroke="#000"/>
 <path d="m458.01 503c-5.5148-0.49101-12.27-1.6498-12.649 0.62463" fill="none" stroke="#000"/>
 <path d="m473.16 520.8c1.4284 4.7974 0.96458 6.7563-0.93695 6.5587" fill="none" stroke="#000"/>
 <path d="m405.23 479.42c1.9629 1.0713 3.9379 2.1184 6.7148 1.5616 2.9402-0.41041 8.2985-0.81917 8.7512 0.42875l2.0237 1.289c6.3186 2.1342 6.4806 4.2683 8.5887 6.4025" fill="none" stroke="#000"/>
 <path d="m412.57 481.13c-1.0411 2.915-2.4985 4.3724-4.3724 4.3724" fill="none" stroke="#000"/>
 <path d="m307.01 578.26c0.92613 5.3641 5.5365 8.2162 15.616 7.3395 1.8439 3.3245 5.0632 5.8925 15.147 4.6848 9.3179 11.963 19.376 8.0073 29.514 2.3424l11.087-8.2764" fill="none" stroke="#000"/>
 <path d="m366.97 592.63c1.7727 14.244 10.317 19.136 20.769 21.394 2.1715 0.17091 3.5006 1.1842 3.5916 3.4355-0.592 14.297 23.944 34.875 35.917 52.313" fill="none" stroke="#000"/>
 <path d="m433.34 616.68c1.8795 24.514 5.6314 36.546 9.9942 44.505" fill="none" stroke="#000"/>
 <path d="m378.06 584.04c4.9124-5.2866 13.879-6.9458 26.703-5.1532 8.1635 3.0535 13.595 0.6426 19.832-0.15616 17.626-1.6079 29.835-1.6681 38.727-0.7808 2.142 2.051 4.6295 2.7196 7.1833 3.1232" fill="none" stroke="#000"/>
 <path d="m463.64 577.64c-3.084 3.1682-7.9125 6.4706-21.706 10.463-11.535 2.5271-25.91 1.0786-39.352 0.93695-6.4043-0.86161-10.005 2.4822-13.117 6.5587" fill="none" stroke="#000"/>
 <path d="m267.5 553.75c8.7057 10.549 9.8147 7.5322 13.117 8.4326l12.18 0.31232c3.6763 0.83285 4.9883 1.6657 5.7779 2.4985 8.9985-0.32269 11.883-1.7242 13.898-3.2793l7.808-5.3094c4.6623-2.8847 9.6366-6.9132 13.117-5.4656l9.838-8.2764" fill="none" stroke="#000"/>
 <path d="m333.71 550.78c-2.1502 4.7652-5.1313 9.8766-2.4985 12.649 2.9225 4.4243 6.7368 5.7268 10.463 7.3395" fill="none" stroke="#000"/>
 <path d="m330.12 566.55c-0.17929 2.2383-4.1324 4.4766-7.4956 6.7148-2.562 0.93539-5.178 2.3568-7.3395-0.31232" fill="none" stroke="#000"/>
 <path d="m322.78 573.27-0.15616 12.337" fill="none" stroke="#000"/>
 <path d="m318.88 557.65c-1.8218 0.98392-3.6437 4.3828-5.4656 7.808l-0.93696 3.7478-2.6547 3.5916c0.3988 3.6217-1.3493 4.5598-2.4985 6.2464" fill="none" stroke="#000"/>
 <path d="m262.97 564.05c4.4173 3.8018 10.707 2.6103 16.241 3.4355l16.553-0.62464c6.0474-0.013 12.492-0.58156 16.553 2.1862" fill="none" stroke="#000"/>
 <path d="m279.37 567.65c0.84457 3.7746 0.13187 5.3691-1.0931 6.2464" fill="none" stroke="#000"/>
 <path d="m286.08 568.74c7.3876 4.0797 15.53 4.3859 23.736 4.3724" fill="none" stroke="#000"/>
 <path d="m299.36 546.25c19.769 4.0563 21.57 7.0124 21.238 9.838" fill="none" stroke="#000"/>
 <path d="m298.89 537.82c6.5155 0.29522 12.469-0.0711 12.024-7.9641-1.2107-8.6973 2.3084-10.638 6.871-11.087" fill="none" stroke="#000"/>
 <path d="m321.53 526.11c-4.9793 1.4672-3.195 10.096-1.2493 18.895 0.27845 5.8288-1.3576 6.2972-3.1232 6.4025" fill="none" stroke="#000"/>
 <path d="m318.25 518.61h6.2464" fill="none" stroke="#000"/>
 <path d="m322 518.92c6.8726 5.3613 7.1042 11.276 9.3695 17.021" fill="none" stroke="#000"/>
 <path d="m339.96 524.7c1.5598-3.6792 1.5159-9.3994 7.3395-7.6518" fill="none" stroke="#000"/>
 <path d="m343.39 542.35c13.44-10.202 22.216-14.523 26.079-12.649 6.445 1.5 10.537 0.64703 14.991 0.15616 3.1232-0.90724 6.2464-2.1767 9.3695-1.0931 2.7784 0.7144 4.2986 1.6805 4.9971 2.8109 14.5-3.9195 9.3132-1.6871 11.868-1.8739 7.725 5.0826 7.8985 3.3001 11.556 4.6848" fill="none" stroke="#000"/>
 <path d="m361.66 537.19c-5.5136 8.1657-23.911 15.186-12.805 24.829-0.11646 4.6698 0.0659 8.443 0.78079 10.619 0.99745 3.2115-0.0609 5.1896-1.0931 7.1833-1.1128 3.3426 0.43556 5.1646 2.1862 6.871" fill="none" stroke="#000"/>
 <path d="m348.86 562.34 8.7449-2.4985c9.0939-6.2627 12.702-5.0802 16.084-3.5917 2.6317 3.4776 4.9662 2.795 7.1833 0.46848 4.087-5.6721 9.5481-8.5959 14.835-11.868 0.06-4.7997-1.6784-9.876 3.4355-13.898" fill="none" stroke="#000"/>
 <path d="m386.49 529.23c0.94708 2.4985-3.7695 4.9971-9.838 7.4956-15.904 5.9405-12.907 7.4338-15.772 10.306" fill="none" stroke="#000"/>
 <path d="m335.12 578.73c11.813 0.36549 11.452 4.7887 15.304 7.8079" fill="none" stroke="#000"/>
 <path d="m355.73 590.91c8.8302-1.6294 10.843-6.44 7.1833-13.898 6.8201 4.6223 10.868-1.0535 14.835-7.0272 10.161 1.1897 17.359-1.4708 19.208-11.087" fill="none" stroke="#000"/>
 <path d="m378.06 569.99c-3.0674 0.0743-6.2025-0.2573-9.6818-2.6547" fill="none" stroke="#000"/>
 <path d="m391.49 567.96c10.931 5.6926 19.065 4.0434 26.703 1.0931 2.6165-2.5143 4.1563-5.3599 1.4054-9.5257" fill="none" stroke="#000"/>
 <path d="m418.19 568.89c23.712 4.0024 30.201-0.15419 30.295-7.3395l-1.0931 5.6217c18.604 2.8637 20.354-0.24141 19.208-4.3724" fill="none" stroke="#000"/>
 <path d="m469.73 551.87c6.4459-2.4248 12.197-3.5304 14.523 1.8739-0.88389 17.795-6.5564 15.371-10.931 18.427" fill="none" stroke="#000"/>
 <path d="m474.88 553.28c4.2851 10.917 0.79085 12.326-2.1862 14.367" fill="none" stroke="#000"/>
 <path d="m468.01 571.55c3.1232 3.1232 1.6657 5.2053-4.3724 6.2464" fill="none" stroke="#000"/>
 <path d="m395.86 544.53c7.1296 0.90893 10.755 3.7649 14.21 6.7148 10.098 4.0303 20.197 3.9075 30.295 3.4355 7.7862-0.76756 15.66-1.7988 22.643-0.15615 3.2231-0.52332 5.0478-1.9789 4.5286-4.9971-1.7312-7.0005-1.5481-10.385 0.46848-10.306" fill="none" stroke="#000"/>
 <path d="m478.63 543.44c0.53083-4.9971 1.6975-9.9942-10.306-14.991 1.8278 5.5773-2.061 7.6368-5.4656 9.9942-7.5585 2.9865-12.921 6.2366-10.15 10.463" fill="none" stroke="#000"/>
 <path d="m440.84 554.53c0.54529 7.3478-1.7021 10.227-5.3094 10.931" fill="none" stroke="#000"/>
 <path d="m404.3 494.25c12.671-0.60624 24.422 0.19838 30.919 9.0572 9.8299 2.1014 12.865 4.5117 13.586 7.0272 4.2839 1.8623 7.6882 4.3842 10.306 7.4956 9.5984 4.0762 8.4733 7.1775 9.3695 10.463" fill="none" stroke="#000"/>
 <path d="m435.06 503.15c2.8832 5.1425 2.3835 7.7477 2.0301 10.463" fill="none" stroke="#000"/>
 <path d="m449.11 510.65c0.94736 4.3401-2.9284 4.9288-5.4656 6.5587-4.9179 5.9201-1.9872 12.444-2.0301 18.739 3.1515 7.3192 1.7754 9.545 1.8739 13.43" fill="none" stroke="#000"/>
 <path d="m428.03 506.43c0.93273 8.5085 0.7297 13.448-1.2493 12.805-3.4673 0.73119 0.44923 7.7914 5.6217 15.928 1.4695 11.6-1.7197 8.6412-3.2793 10.775" fill="none" stroke="#000"/>
 <path d="m416.79 517.83c-1.9319-3.8626 2.2303-6.5968-9.838-12.337 1.3534-2.8109 0.41642-6.6628-2.8109-11.556-3.8329-2.4352-4.3127-5.5092-16.241-6.4025-5.0762 0.23543-3.4176 6.6445-3.904 11.087-4.968 8.0895-22.677 13.573-11.4 24.985" fill="none" stroke="#000"/>
 <path d="m384.15 492.22c-0.90638-1.7848-3.3042-3.2985-13.274-3.4355" fill="none" stroke="#000"/>
 <path d="m408.04 473.17c-8.0478 2.6104-12.174 8.2371-14.835 14.991" fill="none" stroke="#000"/>
 <path d="m398.99 479.26c-3.0784 0.29415-4.9709 3.5529-9.5257 0.15616-3.1232-3.682-6.2464-4.4418-9.3695-4.8409" fill="none" stroke="#000"/>
 <path d="m393.21 501.12c2.7076 1.5906 0.62078 4.3798 0.32265 6.7218-2.845 4.266-0.43046 8.532 0.6143 12.798l-0.15616 7.9641" fill="none" stroke="#000"/>
 <path d="m393.83 521.73c-1.978-1.95-3.956-0.48803-5.934-6.871-1.9504-3.2126-4.2445-4.0187-7.0272-1.4054" fill="none" stroke="#000"/>
 <path d="m389.15 506.43c-3.9321 0.2001-2.4395 4.4688-1.5616 8.2764" fill="none" stroke="#000"/>
 <path d="m389.46 604.19c-1.8078 2.7332-5.4754 4.7224 0.62463 10.619" fill="none" stroke="#000"/>
 <path d="m420.87 616.9c-0.25766-0.0626-1.5226-0.28251-2.8109-0.48875-4.3467-0.69586-9.6347-2.6374-15.302-5.6184-2.1594-1.1358-3.3241-2.0647-6.2575-4.9906-3.7614-3.7518-4.9075-5.4856-5.7583-8.7109l-0.42162-1.5983 1.9236-1.9774c1.1913-1.2246 2.6316-2.3207 3.7832-2.879 2.2046-1.0689 1.5246-1.0473 20.471-0.65111 16.887 0.3531 21.672-0.028 29.11-2.319 6.8119-2.0981 12.345-4.6322 15.79-7.232l1.956-1.476 1.435 0.91008c0.78929 0.50055 1.8415 0.99937 2.3383 1.1085 1.1398 0.25035 1.1384 0.58539-0.0175 4.005-3.7134 10.986-11.118 18.975-24.377 26.302-4.7434 2.6212-9.27 4.6804-11.243 5.1147-1.6422 0.36149-9.6402 0.73943-10.619 0.50179z" fill="#e6e6e6" stroke="#fff" stroke-linecap="round" stroke-width=".31232"/>
 <path d="m348.74 597.16c-2.9704-0.63129-6.8074-3.0655-9.1446-5.8012l-1.4492-1.6963-3.297 0.14663c-5.3164 0.23645-8.6265-0.72361-10.606-3.0762l-0.81371-0.96704 0.0187-6.1443 0.0187-6.1443 2.1826-1.4054c2.5014-1.6107 4.9634-4.0647 4.9634-4.9473 0-0.33893-0.27272-0.67291-0.62464-0.76493-0.40042-0.10472-0.62463-0.01-0.62463 0.26502 0 1.3765-5.8992 5.7376-9.115 6.7385-2.066 0.64302-2.832 0.55519-3.9308-0.45076-0.65788-0.60228-0.74627-0.61211-1.2224-0.13594-0.68606 0.68605-0.19267 1.2747 1.6622 1.983 1.3877 0.52997 2.8775 0.41615 4.9272-0.37642 0.57909-0.22392 0.59124-0.0674 0.39031 5.0273-0.11406 2.8921-0.29086 5.3404-0.39288 5.4405s-1.5016 0.15862-3.1102 0.12992c-3.2328-0.0577-5.8253-0.67914-7.6573-1.8357-1.2036-0.75978-2.7888-2.7502-2.7888-3.5016 0-0.22192 0.47812-1.0986 1.0625-1.9481 0.71119-1.0339 1.1368-2.0899 1.2872-3.1937 0.15808-1.1602 0.57844-2.1584 1.418-3.3669 0.6563-0.94476 1.3581-2.4205 1.5596-3.2793 0.50618-2.158 3.2232-7.0277 4.9509-8.8736 1.3828-1.4773 7.7532-5.6991 10.441-6.9197 1.2676-0.57555 3.7964-0.83566 3.589-0.36917-0.0573 0.12883-0.70141 1.7345-1.4314 3.5681-2.2306 5.6026-1.8409 7.5911 2.2452 11.455 1.7008 1.6085 7.7503 4.9113 8.3345 4.5503 0.77219-0.47725 8e-3 -1.189-2.7344-2.5468-3.3115-1.6396-5.1219-3.0661-6.8101-5.3658-1.3995-1.9065-1.443-3.1689-0.22382-6.499 1.8536-5.0631 2.2221-5.5432 8.0116-10.436 11.01-9.3041 19.933-14.908 25.799-16.203 1.4936-0.32983 2.0435-0.31014 3.7478 0.13422 3.6635 0.95517 11.343 0.95697 15.85 4e-3 0.74783-0.15819 0.69037-0.0466-0.6044 1.1734-1.6835 1.5863-4.2745 2.9256-10.964 5.6673-7.8772 3.2283-9.9781 4.5694-12.073 7.707-1.009 1.511-1.157 1.9123-0.81114 2.1994 0.57792 0.47964 0.90955 0.21377 2.1477-1.7218 1.6249-2.5401 4.1323-4.0545 11.929-7.205 8.1468-3.2918 12.296-5.9135 12.296-7.769 0-0.68912 0.18614-0.78398 2.2073-1.1249 2.4952-0.42088 3.9554-0.18094 6.8212 1.1209l1.6891 0.76728-0.63881 0.69736c-0.35134 0.38355-0.96813 1.3298-1.3706 2.1028-0.64951 1.2474-0.74441 1.9185-0.84378 5.967l-0.11196 4.5616-3.9543 2.4656c-3.2815 2.0461-4.6216 3.1357-7.8762 6.4044-2.157 2.1664-4.2431 4.1108-4.6358 4.3209-0.9947 0.53234-2.1803 0.16154-3.4666-1.0842-1.4177-1.373-3.3174-2.0224-5.9166-2.0224-3.2299 0-6.3378 1.1048-10.143 3.6058-1.0297 0.67669-2.9917 1.4425-5.5941 2.1836l-4.0082 1.1414-0.78435-0.73256c-1.3799-1.2888-2.3183-3.2231-2.3528-4.8495-0.0607-2.8628 1.603-5.0451 7.9787-10.466 4.5686-3.8842 8.0158-7.2818 8.0158-7.9004 0-0.22295-0.21739-0.48878-0.48309-0.59074-0.32566-0.12497-1.1145 0.49036-2.4205 1.8881-1.0656 1.1404-3.5536 3.4361-5.529 5.1014-7.8973 6.6578-9.9412 9.9823-8.607 13.999 0.28623 0.86178 1.0553 2.1754 1.709 2.919l1.1886 1.3522 0.20799 3.904c0.11439 2.1472 0.44713 5.1427 0.73943 6.6567 0.52913 2.7407 0.52831 2.7612-0.18665 4.6848-0.39496 1.0626-0.87113 2.5247-1.0582 3.2491l-0.34006 1.317-1.4332-1.023c-2.407-1.7179-4.499-2.3652-9.1855-2.8422-1.7558-0.1787-1.8148-0.16073-1.7178 0.52302 0.0855 0.60214 0.31077 0.71951 1.5059 0.78449 5.0295 0.27344 7.6683 1.4767 10.841 4.9432 2.2739 2.4846 3.2176 3.071 3.6962 2.2968 0.11402-0.18449-0.0625-0.64125-0.39239-1.015-2.0326-2.3035-2.232-3.5555-1.04-6.5323 1.0713-2.6754 1.1853-4.3744 0.4874-7.2646-0.25647-1.0622-0.45729-3.4448-0.4636-5.5004l-0.0111-3.6265 4.0815-1.1621c3.0595-0.87108 4.7114-1.5446 6.5967-2.6897 1.3834-0.84021 3.3062-1.834 4.273-2.2084 3.4014-1.3173 7.3933-1.068 9.0249 0.56365 1.9052 1.9052 3.8825 2.4429 5.6404 1.5339 0.46878-0.24242 2.0429-1.7442 3.4981-3.3373 2.8647-3.1363 5.5916-5.3009 10.497-8.3328l3.142-1.9419 2.4673 0.62566c3.155 0.80006 5.6191 2.0228 8.5575 4.2466 5.0009 3.7846 13.994 5.5902 26.782 5.3768l6.0125-0.10031-3.1e-4 1.7391c-6.3e-4 3.6265-1.3978 6.3412-3.747 7.2812-1.3007 0.52045-1.4198 0.69141-0.97308 1.3964 0.21979 0.34685 0.51284 0.31214 1.6349-0.19363 2.8034-1.2637 4.0166-3.4314 4.2598-7.6118l0.15699-2.698 1.4422-0.18747c6.7123-0.87251 14.818-0.9469 18.445-0.16925 3.1111 0.66721 6.2715-0.99742 6.7359-3.5479 0.10073-0.55321-0.10449-2.3916-0.45605-4.0853-0.8526-4.1075-0.8552-6.5718-8e-3 -7.1655 0.8023-0.56195 0.50351-1.54-0.42933-1.4054-1.5527 0.22419-1.8699 3.5592-0.84077 8.8395 0.57769 2.9639 0.58162 3.1789 0.077 4.2163-0.71426 1.4685-2.9254 2.2718-4.8642 1.7671-1.692-0.44041-13.591-0.39616-17.217 0.064-4.6032 0.58411-14.569 0.78833-18.889 0.38711-8.4493-0.78458-13.738-2.3266-17.373-5.0657-3.2324-2.4354-5.6044-3.5833-9.1459-4.426l-2.9021-0.69058 0.11059-3.904c0.0966-3.41 0.20877-4.0972 0.88649-5.4307 0.42674-0.8397 1.0575-1.7009 1.4017-1.9138s2.6938-0.9084 5.2214-1.5456c5.2861-1.3327 5.6322-1.3111 8.6545 0.53882 3.2412 1.984 4.4143 2.4026 9.1587 3.2683 0.70652 0.12893 0.85887 0.0442 0.85887-0.47772 0-0.54511-0.41178-0.72825-2.9245-1.3007-2.0997-0.47833-3.6191-1.0686-5.3875-2.0928-3.8845-2.2498-3.9643-2.2854-5.133-2.2875-0.60966-9.3e-4 -3.0634 0.47776-5.4528 1.064l-4.3443 1.066-0.85935-0.7231c-0.47264-0.3977-1.5044-0.96945-2.2929-1.2706l-1.4335-0.54746 0.0485-4.0898c0.043-3.6225-0.0476-4.4109-0.79325-6.9006-1.075-3.5896-1.17-6.3892-0.27569-8.1203 0.9182-1.7772 1.8116-5.5098 1.5593-6.515-0.116-0.4622-0.50348-1.1329-0.86107-1.4905-0.57813-0.57814-0.70208-0.59823-1.119-0.18132s-0.39265 0.57189 0.21898 1.3992l0.68782 0.93032-0.64116 2.1479c-0.35264 1.1813-0.92344 2.9209-1.2684 3.8656-0.34501 0.94476-0.63187 2.2863-0.63747 2.9811-9e-3 1.0839 1.144 6.2127 1.7532 7.8002 0.37787 0.98471-2.3278-0.7074-3.1412-1.9645-1.0253-1.5846-2.2526-4.8296-2.685-7.0991s-0.0853-3.4793 1.0847-3.773c0.49845-0.1251 0.79184-0.41762 0.79184-0.78951 0-0.85453-1.3253-0.76426-2.403 0.16368-0.80708 0.69487-0.87616 0.9292-0.87472 2.967 9.4e-4 1.2169-0.0133 2.2126-0.0315 2.2126s-0.48296-0.15684-1.0329-0.34853c-0.8018-0.27951-1.2674-0.24636-2.3507 0.16738-0.743 0.28376-1.5825 0.7718-1.8655 1.0846-0.45395 0.50161-0.45976 0.61415-0.0493 0.95484 0.37765 0.31341 0.63838 0.26299 1.3834-0.26754 0.51338-0.36555 1.4024-0.65374 2.0167-0.65374 0.8948 0 1.2965 0.23114 2.1649 1.2457 0.58646 0.68515 1.2584 1.8278 1.4932 2.5392 0.65705 1.9909 1.9369 3.5173 3.8585 4.6017l1.751 0.98819-2e-3 2.8863-2e-3 2.8863-2.5746 0.0385c-1.6883 0.0253-3.2735 0.26704-4.6047 0.70231-1.2509 0.409-3.7207 0.80649-6.4349 1.0356-3.9285 0.33164-4.739 0.31107-7.4956-0.19015-5.0525-0.91869-6.1156-0.94162-8.4735-0.18273-2.3772 0.7651-6.6362 2.8423-9.2312 4.5023l-1.7281 1.1054-0.25409-2.7249c-0.65795-7.0558-0.30052-8.8011 2.9863-14.582 3.8141-6.7072 4.2594-8.8077 3.148-14.846-1.0935-5.9415-1.0935-5.6028 1.8e-4 -8.23l0.99448-2.3888h23.678v3.0283c0 2.7826-0.0685 3.1272-0.8447 4.2472-0.46458 0.6704-2.7447 2.8564-5.0668 4.8577s-4.9582 4.3865-5.8578 5.3003c-3.7948 3.8547-4.2674 8.0359-1.3821 12.228 1.3668 1.9856 2.04 2.5006 2.5727 1.968 0.28453-0.28454 0.0733-0.75361-0.91825-2.0388-2.4518-3.178-2.8468-5.4607-1.4351-8.2936 0.80921-1.6239 3.2359-4.0528 9.4966-9.5052 1.4601-1.2716 3.1115-2.9098 3.6697-3.6405 0.92615-1.2122 1.0153-1.5246 1.0185-3.5685 2e-3 -1.232 0.0906-2.7671 0.19702-3.4112l0.19359-1.1712h15.572l1.4648 1.1134c2.6362 2.0037 4.9485 6.9021 4.668 9.8888-0.0851 0.90572-0.25155 1.8751-0.36998 2.1542-0.16804 0.396 0.38112 0.84182 2.5007 2.0301 2.9964 1.6798 5.2306 3.4891 5.8949 4.7736 0.23808 0.46041 0.57588 1.869 0.75066 3.1302s0.45772 2.4331 0.62876 2.6041c0.49669 0.49669 1.3902-5e-4 1.1384-0.63346-0.119-0.29916-0.34639-1.4404-0.5053-2.5361s-0.51421-2.4669-0.78956-3.0472c-0.70648-1.4888-3.3998-3.8487-5.897-5.167l-2.1242-1.1214 0.0677-2.3169c0.0703-2.4084-0.56287-4.7278-1.9174-7.0235l-0.61241-1.038 1.6705-0.0416c9.7121-0.24177 16.868 0.94406 21.503 3.5633 2.6833 1.5164 5.5668 4.4352 6.5921 6.6727 1.031 2.2499 1.5823 5.2514 1.3183 7.1774-0.16937 1.2357-0.12504 1.3673 0.46054 1.3673 0.53335 0 0.68757-0.26239 0.87192-1.4835 0.25874-1.7138-0.27258-5.2949-0.99201-6.6861-0.26895-0.52011-0.43007-1.0046-0.35803-1.0766 0.27202-0.27202 5.6474 1.4862 7.6925 2.5161 2.3231 1.1699 3.5262 2.3652 4.0851 4.0587 0.49785 1.5085-0.0621 2.5664-2.0273 3.8298-3.6617 2.3542-3.8362 2.5202-4.8225 4.5869-1.2718 2.6649-1.4633 4.8946-0.96452 11.231 0.32907 4.1804 0.56381 5.5222 1.3738 7.8527 0.90375 2.6003 0.97709 3.1218 0.97874 6.9606 2e-3 3.9709 0.0287 4.1459 0.62643 4.0601 0.5921-0.0849 0.62325-0.31737 0.59803-4.4621-0.0242-3.9774-0.10518-4.5841-0.89631-6.7148-0.9907-2.6683-1.4795-6.5896-1.5377-12.337-0.0374-3.6941-0.0223-3.779 1.0552-5.9234 1.0238-2.0376 1.2395-2.2577 3.402-3.471 2.542-1.4262 3.3554-2.2725 3.6531-3.8011 0.10874-0.55827 0.30457-1.015 0.43519-1.015 0.57173 0 5.011 3.1747 6.7202 4.8059 1.0629 1.0144 2.9552 2.3519 4.3724 3.0905 4.0977 2.1356 5.7409 4.145 6.2169 7.6025 0.52076 3.7824 0.54642 4.4891 0.201 5.5357-0.56319 1.7065-3.4134 4.0696-6.8864 5.7096-4.9303 2.3281-5.5972 2.7137-7.2206 4.1752-1.8035 1.6237-2.5079 3.2495-2.1312 4.9195 0.30312 1.344 0.65445 1.7212 1.3534 1.453 0.35556-0.13645 0.4633-0.37878 0.31695-0.71296-0.12193-0.27844-0.28117-0.92788-0.35386-1.4432-0.28952-2.0526 2.4744-4.4433 7.8-6.7466 3.1531-1.3638 5.8738-3.3022 7.5332-5.3673 0.78631-0.97856 0.9725-1.5293 1.0782-3.1894l0.12777-2.0066 1.2917 0.65677c2.4963 1.2692 4.9154 3.1197 5.9738 4.5698 1.3232 1.8128 1.782 3.816 1.52 6.6357-0.19015 2.0459-0.16523 2.1684 0.4413 2.1684 0.57228 0 0.66694-0.25722 0.86244-2.3435 0.43456-4.6374-1.0735-7.6841-5.1857-10.477-0.98262-0.66728-2.5742-1.5616-3.5368-1.9873-1.158-0.51211-1.7502-0.95788-1.7502-1.3173 0-0.29878-0.23762-1.3957-0.52805-2.4376-0.4319-1.5495-0.84416-2.2087-2.2643-3.6209-1.0071-1.0014-2.7199-2.2355-4.0786-2.9386-1.2883-0.66665-3.2478-2.0535-4.3545-3.0819-2.0752-1.9285-5.7388-4.4791-7.454-5.1896-0.53665-0.22229-1.0567-0.6592-1.1556-0.97091-0.58785-1.8522-5.0201-4.3428-10.265-5.768-3.0057-0.81682-3.1377-0.89155-5.1812-2.9351-4.8237-4.8237-11.671-6.9243-23.027-7.0643-5.5313-0.0682-6.0624-0.1244-6.871-0.72742l-0.87636-0.65353 16.119-0.01 16.119-0.01-0.14926 0.78079c-0.11338 0.59313-0.0174 0.7808 0.39928 0.7808 0.30169 0 0.70457-0.21271 0.89528-0.47269 0.38219-0.521 3.2687-1.0843 5.5709-1.0871 2.676-3e-3 8.7457 2.748 11.474 5.201 1.5202 1.3668 3.6704 4.359 3.3573 4.6721-0.0931 0.0931-1.9031 0.0278-4.0222-0.14525-4.5911-0.37489-6.6901-0.12011-7.5272 0.91364-0.5703 0.70429-0.57103 0.73803-0.0202 0.93522 0.31427 0.11252 0.84862 0.0129 1.1874-0.22143 0.75599-0.52278 4.5735-0.5624 8.8439-0.0918 2.5344 0.27931 3.3664 0.5188 5.0628 1.4574 3.9017 2.1588 7.1596 5.0498 8.8991 7.8969 1.209 1.9788 3.8487 9.5682 4.1176 11.838 0.15761 1.3308 0.0949 1.5829-0.48376 1.9443-0.84693 0.52892-0.88102 1.5142-0.0524 1.5142 0.33686 0 0.91104-0.31622 1.276-0.70271 0.56244-0.59569 0.64552-0.99616 0.54553-2.6295l-0.11795-1.9267 1.4472 1.2117c6.0604 5.074 9.6574 11.25 11.118 19.089 0.7936 4.259 0.79715 17.675 6e-3 21.655-0.82014 4.1249-1.6152 5.5691-5.6642 10.289l-3.6337 4.2356-1.6234-0.17661c-1.5684-0.17063-3.0588 0.0455-5.6835 0.82425-1.1065 0.32828-1.4608 0.28558-3.1-0.37355-1.0179-0.40931-1.8981-0.89024-1.9561-1.0687s0.5474-0.49911 1.3452-0.71248c1.7808-0.47629 3.5547-2.133 3.5547-3.3197 0-0.94471-0.66455-2.3679-1.3848-2.9656-0.37897-0.31451-0.58945-0.32258-0.93493-0.0359-0.37979 0.3152-0.33184 0.53802 0.32362 1.5039 0.94906 1.3985 0.87086 1.8929-0.43911 2.7756-1.8205 1.2268-4.4427 1.6165-8.6596 1.287-8.6111-0.67281-31.547 0.44841-39.813 1.9462-5.155 0.93414-8.4292 0.88321-12.649-0.19675-3.2495-0.83166-3.8076-0.87969-10.306-0.88704-5.6768-6e-3 -7.2781 0.0934-9.2134 0.57444-3.6973 0.91897-6.7603 2.5212-8.7988 4.6025-0.97439 0.99487-4.0137 3.485-6.7541 5.5335-5.2353 3.9137-9.9315 6.5016-14.274 7.8656-2.1546 0.67684-6.9127 1.0799-8.5759 0.7264h-2e-5zm11.046-6.7282c2.4775-0.95857 4.6084-3.0288 5.1634-5.0164 0.39223-1.4045 0.33264-3.3832-0.16841-5.592l-0.18992-0.83723 2.3063 0.17442c2.046 0.15474 2.4814 0.0856 3.8582-0.61283 1.7095-0.86722 4.3947-3.5497 6.0835-6.0774l1.0901-1.6316 3.4355-0.0135c3.7694-0.0148 6.8706-0.54758 8.903-1.5295l1.3171-0.63637 1.2864 0.65629c1.9082 0.97351 5.3622 2.1004 8.0132 2.6144 4.4496 0.86266 9.4688 0.40602 14.918-1.3572l2.8934-0.93629 4.2899 0.61892c5.8027 0.83719 14.948 0.92201 17.96 0.16656 2.1192-0.53152 4.3446-1.4982 5.2276-2.2708 0.39109-0.3422 1.0562-0.33188 3.904 0.0606 4.5352 0.62496 12.354 0.71603 14.179 0.16513 0.75718-0.22865 1.7761-0.81515 2.2643-1.3033 0.76305-0.76306 0.8876-1.132 0.8876-2.6294 0-1.6257-0.0495-1.7418-0.74243-1.7418s-0.732 0.0925-0.58813 1.3689c0.18787 1.6668-0.45836 2.4616-2.4789 3.0487-1.6793 0.48793-8.6962 0.42068-12.623-0.12099l-2.847-0.39268 0.41276-1.5616c0.61886-2.3413 0.56971-3.5916-0.14119-3.5916-0.4557 0-0.65708 0.37622-0.93074 1.7389-0.41165 2.0498-1.25 3.336-2.8157 4.3201-2.6406 1.6596-7.8254 2.5475-13.006 2.2272-2.8968-0.17911-11.451-1.0998-11.638-1.2527-0.0455-0.0371 0.29326-0.74002 0.75269-1.562 0.64287-1.1502 0.83147-1.9046 0.81857-3.2742-0.0183-1.9422-1.0146-4.3835-1.7888-4.3835s-0.82969 0.55823-0.17713 1.7758c0.92948 1.7342 0.83818 3.7144-0.25009 5.4245-1.1297 1.7752-1.3646 1.9477-3.7662 2.767-7.5192 2.565-14.693 2.3232-21.253-0.71615l-1.5557-0.72076 1.1003-1.0639c2.2236-2.1501 4.2754-7.7467 2.9343-8.0039-0.33337-0.0639-0.67543 0.56352-1.1861 2.1758-1.2682 4.0039-3.527 6.3234-7.5847 7.7884-1.8259 0.65924-2.4786 0.7195-7.3376 0.67745-5.8651-0.0508-8.2423-0.46559-10.606-1.8507-1.3668-0.80097-2.0191-0.79623-2.0191 0.0147 0 0.98548 4.9702 2.9753 7.4317 2.9753h1.0541l-1.1718 1.6397c-2.7575 3.8583-5.4543 5.856-7.9055 5.856-0.80657 0-1.9684-0.38126-3.3392-1.0957-1.1562-0.60265-2.1578-1.0401-2.2258-0.97217s0.23434 1.0044 0.67178 2.0809c1.2055 2.9668 1.5779 5.1836 1.1394 6.7821-0.64503 2.3512-3.0702 4.181-6.7793 5.1149-1.0485 0.26401-1.3681 0.49129-1.3681 0.97291 0 0.551 0.14429 0.60553 1.1712 0.44261 0.64415-0.1022 2.0015-0.50708 3.0164-0.89974zm116.53-18.987c1.497-0.68833 3.2398-1.6618 3.8729-2.1632 2.3082-1.8282 3.7832-5.9074 4.4127-12.204 0.38629-3.864 0.21153-4.4954-1.7117-6.184-2.1742-1.909-5.6685-2.0836-10.716-0.53529-2.4013 0.7366-2.7897 0.94846-2.6586 1.45 0.19398 0.7418 0.21711 0.74045 3.0264-0.1766 5.4014-1.7632 9.1842-1.1743 10.601 1.6504 0.71192 1.4192-0.0556 7.5625-1.3906 11.131-1.0083 2.6948-2.4512 4.0978-5.8318 5.6702-2.6202 1.2187-3.2775 1.8085-2.6807 2.4052 0.27624 0.27624 0.01 0.36666 3.076-1.0433zm-1.1024-4.8718c1.6359-1.478 2.1922-2.7947 2.1831-5.1673-0.0162-4.212-1.9775-9.6617-2.9253-8.1282-0.0874 0.14144 0.19358 1.3672 0.62443 2.724 0.97093 3.0575 1.2662 5.9079 0.76839 7.4164-0.34302 1.0394-1.7474 2.5687-3.0053 3.2726-0.36127 0.20217-0.4571 0.49965-0.31012 0.96274 0.2569 0.80941 0.83066 0.57683 2.6648-1.0802zm-42.627-22.463c0.55525-0.72976 0.62161-1.2779 0.59745-4.9344l-0.0272-4.1135-2.7079-4.5286c-4.0634-6.7956-5.2068-10.306-3.4386-10.558 1.1803-0.16827 1.711-1.1356 2.0336-3.7071 0.20702-1.6503 0.19813-3.5645-0.0274-5.8957-0.18368-1.8986-0.33394-3.6203-0.33394-3.8259s-0.26787-0.37385-0.59526-0.37385c-0.5696 0-0.58786 0.23959-0.42356 5.5583 0.17846 5.777-1e-3 6.9344-1.0757 6.9344-0.28104 0-0.768 0.2326-1.0821 0.51689-1.5054 1.3624-0.13604 5.7074 3.901 12.378l2.4171 3.9937 0.17737 2.8772c0.23036 3.7369-0.20415 5.1543-1.8121 5.9114-1.3875 0.65334-1.681 1.0643-1.1859 1.6609 0.32195 0.38792 0.55627 0.34425 1.6666-0.31055 0.71057-0.41907 1.573-1.1314 1.9166-1.5829z" fill="#e6e6e6" stroke="#fff" stroke-linecap="round" stroke-width=".31232"/>
 <path d="m360.09 491.65c0.0991-0.25834 1.9264-3.2546 4.0606-6.6584 4.6594-7.4313 5.5674-9.1814 6.6238-12.768 0.78677-2.6709 0.90057-5.4148 0.2905-7.0046-0.16008-0.41716 0.22028-0.56599 2.2558-0.88264l2.4484-0.38087 2.8524 1.4301c4.2876 2.1498 5.5586 2.408 13.212 2.6849 6.4921 0.23483 8.1602 0.47749 10.15 1.4766 1.5115 0.7588 4.2178 2.8837 4.1987 3.2967-0.01 0.20915-0.95853 0.82847-2.1086 1.3762s-3.036 1.8127-4.191 2.8109c-3.8225 3.3036-7.2052 4.007-9.5698 1.99-4.1896-3.5737-5.6703-4.3855-8.8765-4.8663-1.3453-0.20174-1.4712-0.16601-1.4712 0.41732 0 0.51812 0.30802 0.70198 1.6397 0.97873 2.4458 0.50832 4.5603 1.6216 6.4806 3.412 2.1772 2.03 3.8047 2.6838 6.0928 2.4476 0.94332-0.0974 1.7151-0.11411 1.7151-0.0372s-0.37306 0.73077-0.82903 1.4531-1.1606 2.063-1.5658 2.9793l-0.7368 1.666-1.4793-0.22359c-4.3547-0.65821-6.1013-0.15646-7.0904 2.037l-0.54653 1.212-0.98132-0.57135c-1.2889-0.75043-4.8908-1.4431-8.8673-1.7053-3.0805-0.20311-3.2013-0.18709-3.2013 0.42444 0 0.74273 0.53404 0.86088 4.9971 1.1056 3.296 0.18074 5.8069 0.81116 6.918 1.7369 0.73112 0.60916 0.69168 0.61141-10.933 0.62176-10.259 9e-3 -11.645-0.0463-11.487-0.45932z" fill="#e6e6e6" stroke="#fff" stroke-linecap="round" stroke-width=".31232"/>
 <path d="m401.62 491.1c-1.7171-1.3237-3.6421-2.2993-5.8089-2.9439-0.81593-0.24275-1.4835-0.58114-1.4835-0.75197 0-0.46502 1.5164-3.377 2.5905-4.9746 1.6449-2.4466 5.2059-5.6865 7.6777-6.9854 2.1728-1.1418 2.4014-1.1958 4.2129-0.99596 5.5489 0.61218 11.17 2.7604 17.716 6.7708 1.6477 1.0094 3.2347 1.8352 3.5268 1.8352 2.5066 0 8.5216 2.005 10.845 3.6149 1.057 0.7325 2.465 2.8893 2.465 3.776 0 0.18707-1.2798 0.40202-3.0451 0.51144-2.8815 0.17861-5.0752 0.65724-5.0752 1.1074 0 0.11203-7.224 0.20369-16.053 0.20369h-16.053l-1.5146-1.1675zm29.873-1.9555c0.3233-0.38956 0.13603-0.76399-1.1138-2.227-1.8589-2.1759-3.4404-3.3406-5.6675-4.1738-0.94531-0.35368-2.3711-1.0961-3.1684-1.6498-1.4003-0.97244-1.5561-1.0064-4.5728-0.998-1.7177 5e-3 -4.2475 0.0707-5.6217 0.14634-2.2086 0.12161-2.7043 0.0423-4.2716-0.68377-1.7632-0.81679-2.1309-0.75436-2.1309 0.36179 0 0.39875 3.1244 1.545 4.9176 1.8041l1.6383 0.23671-0.63009 1.0338c-0.34655 0.56861-1.1189 1.2381-1.7164 1.4877-0.7233 0.30222-1.0863 0.66119-1.0863 1.0743 0 0.70847 0.23069 0.75392 1.4632 0.28826 1.2216-0.46154 2.4232-1.6792 3.0678-3.1086 0.51279-1.1372 0.64648-1.2215 2.2542-1.4224 2.565-0.32047 4.5844 0.0236 6.0984 1.0391 0.72976 0.48947 2.3106 1.2955 3.5131 1.7911 1.7083 0.70415 2.6129 1.3434 4.1382 2.9244 1.0736 1.1128 1.952 2.1405 1.952 2.2837 0 0.41577 0.51386 0.30176 0.93681-0.20786z" fill="#e6e6e6" stroke="#fff" stroke-linecap="round" stroke-width=".31232"/>
 <path d="m384.96 491.48c0-0.78265 0.72119-2.2275 1.3882-2.781 0.62989-0.52275 3.1276-0.46798 6.295 0.13804 3.3004 0.63147 5.0057 1.23 6.6835 2.3458l1.4054 0.93467-7.886 1e-3c-7.7419 1e-3 -7.886-0.0104-7.886-0.63882z" fill="#e6e6e6" stroke="#fff" stroke-linecap="round" stroke-width=".31232"/>
 <path d="m343.76 537.51c-5e-3 -4.2581-0.42717-6.3659-2.0177-10.082l-1.1288-2.637 1.0092-2.9279c1.2921-3.7485 2.1662-4.607 4.3902-4.312 1.3414 0.17794 1.4996 0.13541 1.4996-0.40305 0-0.33109-0.22231-0.68729-0.49402-0.79155-0.94684-0.36334-3.0075-0.18587-3.8892 0.33493-0.94218 0.55656-2.157 2.5622-2.8036 4.6287-0.21498 0.6871-0.44431 1.3439-0.50962 1.4595s-0.71444-0.11953-1.4425-0.52258c-1.615-0.89405-5.3155-2.0839-9.2878-2.9864-1.6319-0.37074-3.0779-0.77655-3.2135-0.90178-0.50479-0.46626 2.9755-5.767 5.2393-7.9799 2.4295-2.3748 7.3903-5.9976 12.809-9.3545 1.8895-1.1705 3.4941-2.1798 3.5657-2.2428 0.14464-0.12738 0.46534-4.4082 0.93708-12.509 0.34279-5.8862 0.65292-7.0606 2.1761-8.2406 4.7844-3.7064 5.6577-4.6938 5.6577-6.3963 0-1.3018-0.83199-2.7338-2.6997-4.6468-1.8808-1.9264-1.8876-2.2271-0.0724-3.1658 1.3302-0.68785 5.4832-1.2324 6.0174-0.78903 1.1746 0.97487 4.5141 1.9476 7.2888 2.1231 3.061 0.19363 2.9089 0.10093 3.3392 2.0363 0.28438 1.2792-0.67703 5.4155-1.849 7.9549-0.57062 1.2364-2.8991 5.2346-5.1744 8.8848-6.0813 9.7563-7.2359 12.544-6.4029 15.457 0.78213 2.7359 1.4694 7.6808 1.2506 8.997-0.3486 2.0961-1.3673 4.512-3.4722 8.2348-3.0514 5.3967-3.3249 6.2166-3.3539 10.053-0.0136 1.8036 0.0825 4.5442 0.2135 6.0902l0.23825 2.8109-2.5806 1.7702c-1.4194 0.97359-3.1779 2.2155-3.908 2.7598l-1.3274 0.98964-5e-3 -3.6968z" fill="#e6e6e6" stroke="#fff" stroke-linecap="round" stroke-width=".31232"/>
 <path d="m308.9 481.95c-0.8354-1.275-0.93185-3.8561-0.19758-5.2873l0.61197-1.1929 7.933-2.3906c6.4928-1.9566 8.7736-2.8033 12.563-4.664 5.0706-2.4897 7.8346-3.525 11.349-4.2508 2.26-0.46681 2.3629-0.45988 5.4452 0.36664 2.9851 0.80047 3.2474 0.94038 5.2648 2.8082 2.2351 2.0694 3.3021 3.7794 2.9839 4.782-0.10486 0.33036-0.57561 1.0128-1.0461 1.5164l-0.85548 0.91579-4.2111-0.16069c-3.6127-0.13786-4.9001-0.0433-9.0597 0.6657-2.957 0.50399-8.1627 1.0498-13.343 1.3992l-8.4949 0.57278-2.265 1.1299c-1.2458 0.62142-3.1367 1.9131-4.2021 2.8704l-1.9371 1.7406-0.53811-0.82127z" fill="#e6e6e6" stroke="#fff" stroke-linecap="round" stroke-width=".31232"/>
 <path d="m298.16 563.82c-0.2639-0.27232-1.318-0.7981-2.3424-1.1684-1.5778-0.57034-2.8892-0.71062-8.5774-0.91755-9.9243-0.36103-10.499-0.43843-12.355-1.665-0.86926-0.57423-2.6963-2.2406-4.0601-3.7031l-2.4796-2.6591v-2.1399c0-1.7022-0.17566-2.4976-0.85887-3.8888-1.1384-2.318-1.1564-4.6923-0.0554-7.3083 0.43377-1.0306 1.3474-3.2557 2.0303-4.9445s1.5839-3.7461 2.0023-4.5717c1.3898-2.7426 4.0633-4.382 7.146-4.382h1.0867l1.1618 3.0451c1.4345 3.7598 2.0673 4.864 3.7675 6.5746 1.7623 1.773 2.9403 4.2386 3.1547 6.6032 0.14739 1.6255 0.25929 1.8916 0.79554 1.8916 0.57599 0 0.61158-0.15495 0.46241-2.0132-0.20955-2.6106-1.6242-5.658-3.4504-7.4329-1.605-1.5599-1.9905-2.245-3.4589-6.1466l-1.0862-2.8861 1.6986-4.1076c0.93423-2.2592 1.6304-4.2853 1.547-4.5026-0.41713-1.087-1.1249-0.14929-2.5873 3.4281-1.7465 4.2722-1.1377 3.763-5.4432 4.553-2.2005 0.4038-4.0395 1.5942-5.2229 3.3808-0.49981 0.75456-1.6424 3.1613-2.5392 5.3483-2.5509 6.2211-2.022 5.6543-5.0979 5.4624-3.6297-0.22645-5.163 0.0585-6.5742 1.2216-1.04 0.85722-1.1223 1.0229-0.71219 1.4331s0.59611 0.36279 1.6083-0.40928c1.2844-0.97966 3.3506-1.2967 6.1618-0.94562l1.6526 0.20641-0.11136 2.6721c-0.099 2.376-0.0249 2.8332 0.66923 4.1256 0.9637 1.7944 1.2141 3.0072 0.90874 4.4016-0.21847 0.99773-0.4459 1.1674-3.1933 2.3828l-2.9581 1.3086-1.1174-0.8829c-2.1652-1.7109-3.7578-4.8724-4.2758-8.4886-0.19776-1.3805-0.34705-1.6565-0.94182-1.7413-0.6641-0.0947-0.69549-0.0192-0.51954 1.2493 0.55936 4.0328 2.3752 7.9366 4.5382 9.7566l1.0568 0.88922 5e-3 3.0819c4e-3 2.1125-0.10756 3.0819-0.35307 3.082-0.422 1e-5 -5.6583-8.8215-6.5813-11.087-1.1891-2.9191-1.7506-6.5204-1.4596-9.3609l0.2032-1.9833 1.5213-0.828c0.83672-0.45539 1.5213-0.89228 1.5213-0.97086s-0.36736-0.72482-0.81636-1.4361l-0.81636-1.2932 1.0088-3.4634c2.8272-9.7066 5.2132-14.429 9.2884-18.384l1.214-1.1781 2.166 0.31305c1.1913 0.17218 2.5561 0.31583 3.0329 0.31923l0.86695 6e-3 -1.2925-2.355-1.2925-2.355 2.2848-3.0325c3.1657-4.2016 9.2006-10.155 12.464-12.295 2.9218-1.9162 6.6208-3.8362 9.5533-4.9585 1.7242-0.65991 1.9822-0.88178 2.7665-2.3799 1.6242-3.1022 4.9785-5.417 9.5912-6.6191l2.2936-0.59769 0.21295 1.1828c0.11713 0.65053 0.50947 1.764 0.87188 2.4744l0.65892 1.2916-1.3702 1.6266c-2.7014 3.207-4.1214 5.5904-4.1214 6.918 0 1.7708-1.1266 2.3563-5.1413 2.6718-3.7794 0.29699-5.6007 1.1247-6.0148 2.7335-0.29125 1.1315-1.7892 2.431-6.3131 5.4766-2.3682 1.5944-3.195 1.9664-5.4656 2.4593-2.4289 0.52728-2.7872 0.70271-3.8914 1.9052-0.66886 0.72847-1.7159 2.0975-2.3267 3.0422-1.0667 1.6499-5.0428 10.412-5.0449 11.117-2e-3 0.55839-0.93306 1.2162-3.905 2.758-4.4774 2.3228-5.8351 4.295-6.3044 9.1585-0.17335 1.7962-0.13939 1.952 0.42542 1.952 0.52489 0 0.66818-0.34975 0.98918-2.4145 0.67579-4.3468 1.6528-5.5703 6.2953-7.8835 2.117-1.0548 3.7478-2.3586 3.7478-2.9963 0-0.63132 3.6871-8.9059 4.7496-10.659 0.55184-0.91054 1.5911-2.2324 2.3094-2.9374 1.119-1.0982 1.675-1.3677 3.8807-1.8813 2.2303-0.51934 3.0387-0.91628 6.0459-2.9687 4.0843-2.7876 5.3382-3.9093 6.1661-5.5158 0.74807-1.4516 1.382-1.7061 5.1025-2.0481 2.0393-0.18747 3.3844-0.4959 4.4357-1.0171 1.468-0.72779 1.5116-0.78984 1.6063-2.2866 0.0789-1.2454 0.38858-1.9595 1.6254-3.7478 3.5442-5.1245 7.023-8.5157 10.582-10.315 1.4738-0.74525 2.2404-0.88824 6.0902-1.1361 9.3604-0.60271 13.225-0.97789 17.619-1.7104 4.2801-0.71357 9.0963-0.98698 10.165-0.57704 0.36778 0.14114 0.2283 0.39901-0.61749 1.1416-2.261 1.9852-2.3626 2.4369-2.9341 13.043-0.46744 8.6755-0.0914 7.6927-3.8268 10.001-2.895 1.7891-7.5314 4.9381-9.6348 6.5437l-0.81718 0.62378-0.69634-1.7915c-1.0486-2.6977-1.1996-6.3189-0.37649-9.0287 0.69805-2.2982 2.3866-5.161 4.2801-7.257 0.9735-1.0776 1.0933-1.3561 0.7574-1.7608-0.35087-0.42277-0.52823-0.35667-1.4696 0.54765-1.6858 1.6195-4.1015 5.5209-4.7946 7.7433-1.005 3.2224-0.75731 8.0862 0.54392 10.681 0.68003 1.3562 0.52422 1.7795-1.42 3.858-1.0136 1.0836-2.6344 3.315-3.6019 4.9588l-1.759 2.9887-2.4102-2e-3 -2.4102-2e-3 -0.0211-2.8871c-0.0232-3.1769-0.19337-3.8894-2.8649-11.994l-1.7666-5.3592 0.94586-2.761c0.52022-1.5186 1.8433-4.6313 2.9402-6.9172 1.6574-3.4541 1.917-4.2051 1.5366-4.4458-0.25176-0.15923-0.53101-0.29166-0.62056-0.29429-0.2775-8e-3 -4.7512 9.7292-5.3556 11.657-0.31446 1.0031-0.57176 2.2424-0.57176 2.754s0.8991 3.6262 1.998 6.9212c2.0876 6.2596 2.8769 10.031 2.5296 12.087-0.21314 1.2616-0.33393 1.3476-2.3746 1.6903-1.7763 0.29832-3.8019 1.8274-4.6689 3.5243-0.70406 1.378-0.76587 1.8591-0.7942 6.1811-0.0342 5.2231-0.27519 6.087-2.0771 7.4468-1.3917 1.0503-3.0568 1.4484-6.0663 1.4505l-2.5524 2e-3 -0.35262-1.0685c-0.19394-0.58765-0.77782-1.6554-1.2975-2.3728l-0.94488-1.3044 1.1269-1.6972c1.7494-2.6348 3.3212-4.2194 4.8552-4.8947 1.6819-0.74044 4.7562-3.3268 6.0074-5.0539l0.90128-1.2441-0.67468-0.30105c-0.53859-0.24033-0.73934-0.17838-0.9953 0.30714-0.60958 1.1563-4.0405 4.1509-5.6517 4.933-2.1879 1.062-2.998 1.8156-5.019 4.6685l-1.7247 2.4347-1.1032-1.4977c-1.624-2.2047-2.3419-3.8351-2.599-5.902-0.19914-1.6013-0.32275-1.8554-0.94539-1.9437-0.69212-0.0982-0.70899-0.0455-0.50003 1.5616 0.4389 3.3754 1.7029 5.8439 4.5712 8.927 1.019 1.0953 2.1341 2.6277 2.4781 3.4053l0.62539 1.4138-0.67919 0.47572c-2.0113 1.4088-5.4435 4.365-6.8333 5.8856-1.7135 1.8749-2.3507 3.49-2.023 5.1283l0.20284 1.0142-1.0611-0.2292c-2.853-0.61627-5.2072-2.7987-7.0616-6.5464-1.1084-2.2399-1.6695-2.7675-2.1378-2.0098-0.35025 0.5667 2.2683 5.4402 3.7325 6.9468 1.6964 1.7454 3.493 2.6844 5.5984 2.9259 1.1793 0.13527 1.9108 0.43963 2.6966 1.1219 1.4142 1.2278 4.4355 2.625 6.5394 3.024 1.8239 0.3459 6.2586 0.37019 9.2475 0.0506 1.6673-0.17826 1.8855-0.28229 1.979-0.9437 0.0905-0.64023 4e-3 -0.71822-0.62463-0.56214-1.6917 0.4201-7.9948 0.5812-9.787 0.25013-2.3893-0.44137-6.1199-2.2664-7.1604-3.5029-1.1367-1.3509-1.1037-3.2103 0.086-4.8527 0.95191-1.3142 3.8081-3.8964 6.6058-5.9723 1.2694-0.94188 1.924-1.2344 2.5078-1.1208 0.43453 0.0846 2.016 0.0191 3.5145-0.14558 3.7058-0.4072 5.8534-1.46 7.0174-3.44 0.82998-1.4119 0.85916-1.6158 0.87965-6.1451 0.0228-5.0431 0.29602-6.2309 1.7386-7.5588 1.1843-1.0901 2.8132-1.6197 5.6237-1.8284l2.6106-0.19385 2.0866 2.0833c2.5349 2.5309 4.0298 5.298 5.8641 10.855 1.0759 3.2594 1.423 3.982 1.9132 3.982 0.32932 0 0.59877-0.20024 0.59877-0.44499 0-0.91951-2.9125-8.8476-3.9603-10.78-0.59991-1.1065-1.7281-2.7579-2.5071-3.6697-0.8304-0.97198-1.2333-1.6579-0.97392-1.6579 0.24334 0 2.6848 0.56191 5.4254 1.2487 4.9219 1.2334 8.7942 2.8057 9.2315 3.7484 2.7455 5.9184 3.4033 8.5785 3.4033 13.764v3.9824l-4.6978 3.9601c-3.2166 2.7115-4.8552 3.8997-5.1972 3.7685-1.5151-0.58138-5.6013 1.1019-10.46 4.3088l-0.83469 0.55096-0.53337-1.124c-0.29336-0.61819-0.82332-1.3271-1.1777-1.5753l-0.64433-0.45131 0.6925-0.73714c1.5754-1.6769 1.6617-4.1663 0.37037-10.675-0.9046-4.5594-1.1818-8.5609-0.74462-10.747 0.19713-0.98565 1.4686-2.6148 2.2409-2.8712 0.51318-0.17042 0.15396-1.2168-0.41772-1.2168-0.75909 0-2.2594 1.5473-2.8 2.8878-0.86912 2.1551-0.70057 6.6396 0.47253 12.572 0.72697 3.6763 0.93444 5.4098 0.78496 6.5587-0.3724 2.8621-1.3967 3.607-3.6022 2.6195-3.4517-1.5454-16.129-4.835-16.672-4.3259-0.53113 0.49886 0.0805 1.1609 1.2658 1.3703 3.2991 0.58264 10.619 2.5855 13.486 3.6898 2.4142 0.93005 3.5804 1.5786 4.6067 2.562 0.75579 0.72417 1.3742 1.5295 1.3742 1.7897 0 0.51001-8.6378 6.5435-10.455 7.3027-1.6268 0.67973-4.9427 1.3104-8.128 1.546-2.3438 0.17331-2.8906 0.12558-3.2907-0.28728zm-0.76913-45.264c-2.4768-1.7794-4.1329-4.1587-5.312-7.6315-0.57336-1.6888-0.82565-2.0776-1.2921-1.9908-0.31878 0.0593-0.61991 0.14644-0.66918 0.1937s0.33928 1.2636 0.86346 2.7031c1.1608 3.1877 2.7679 5.5957 4.814 7.213 1.4244 1.1259 1.5758 1.178 2.0356 0.70092 0.45628-0.47343 0.42041-0.57035-0.43982-1.1884z" fill="#e6e6e6" stroke="#fff" stroke-linecap="round" stroke-width=".31232"/>
 <path d="m273.81 572.21c-5.7403-1.4672-8.749-2.9596-12.746-6.3219-1.6315-1.3726-1.6466-1.4009-0.93696-1.7556 0.67495-0.33738 0.72129-0.54477 0.72129-3.2277 0-2.139 0.11899-2.9823 0.46848-3.3204 0.25766-0.24926 1.7158-1.0124 3.2403-1.6958l2.7718-1.2426 1.3038 1.468c2.1031 2.368 5.0319 4.937 6.4578 5.6644 1.6336 0.83342 5.3794 1.2064 12.271 1.2219 5.3947 0.0121 8.2844 0.56943 10.016 1.9318 0.78718 0.6192 1.09 0.65457 4.0521 0.47334 5.6482-0.34559 8.5624-1.179 11.792-3.3721 0.99732-0.67727 1.8133-1.1493 1.8133-1.0489s-0.55203 1.1948-1.2268 2.4321-1.3228 2.7766-1.4402 3.4208-0.23292 1.1711-0.25675 1.171-0.79858-0.28721-1.7217-0.63805c-3.1683-1.2042-7.0305-1.3893-20.072-0.96218-17.389 0.56958-22.367 0.10401-26.417-2.4708-0.53481-0.33997-0.78002-0.35666-1.0643-0.0724-0.49944 0.49944 0.087 1.1835 1.7383 2.0279 2.0883 1.0678 4.1373 1.4747 9.2343 1.8339 2.6625 0.18766 4.8955 0.39417 4.9623 0.45891s0.13702 0.96039 0.15616 1.9903c0.0279 1.5-0.0895 1.988-0.58984 2.4523-0.60994 0.566-0.71652 0.55616-4.5286-0.41821z" fill="#e6e6e6" stroke="#fff" stroke-linecap="round" stroke-width=".31232"/>
 <path d="m303.8 577.34c-0.93687-0.15923-1.7832-0.41868-1.8808-0.57656-0.29143-0.47154-5.1074-0.96064-11.095-1.1267-4.8919-0.13571-5.9791-0.26299-8.3747-0.98044-2.6948-0.80706-2.7476-0.84147-2.4985-1.629 0.13995-0.44248 0.24999-1.7532 0.24454-2.9126l-0.01-2.1081h3.066c2.9888 0 3.0574 0.016 2.7252 0.63686-0.31282 0.5845-0.14345 0.72805 2.06 1.7461 4.5415 2.0983 10.653 3.2362 17.388 3.2379l3.6697 8.8e-4v0.89076c0 0.48993-0.32074 1.3683-0.71276 1.952-0.80816 1.2032-1.6625 1.3653-4.5823 0.86904z" fill="#e6e6e6" stroke="#fff" stroke-linecap="round" stroke-width=".31232"/>
 <path d="m298.73 571.9c-1.6665-0.22727-4.126-0.712-5.4656-1.0772-2.729-0.74395-6.7104-2.4702-6.4963-2.8166 0.0768-0.12431 3.5517-0.32298 7.722-0.44149 8.41-0.239 12.625 0.0573 15.357 1.0794l1.7342 0.64884-1.1514 1.5423-1.1514 1.5423-3.7592-0.0322c-2.0676-0.0177-5.1228-0.21814-6.7893-0.44541z" fill="#e6e6e6" stroke="#fff" stroke-linecap="round" stroke-width=".31232"/>
 <path d="m278.40851,580.95943c-.82633-.5615-1.16562-1.02039-1.16562-1.5765 0-1.37674-1.7244-2.44805-5.54364-3.44406-.65332-.17038-.43573-.97963.31232-1.16155 2.80546-.68226 4.4385-.57387 7.92055.52571 4.41485,1.39414 7.06585,1.87366 8.96928,1.6224 2.20496-.29106 10.55857.42566 11.16528.95797 .27119.23792.78065.43259 1.13215.43259s1.11322.0948 1.69272.21073c1.0521.21042 1.05121.21127-.61601.58676-1.15422.25996-2.40744.29247-4.05969.10533-1.42392-.16128-3.6877-.14883-5.60023.0308-2.99698.28147-9.53046,1.57136-11.22769,2.21665-1.16471.44282-1.72121.34815-2.97942-.50683z" fill="#e6e6e6" stroke="#fff" stroke-linecap="round" stroke-width=".31232"/>
 <path d="m383.99 591.26c-9.3764-5.7169-2.3504-11.632 13.235-11.142 14.537 0.45667 21.532 0.36847 43.295-0.54593l19.988-0.83986-7.6726 3.8064c-10.085 5.003-19.794 6.4309-40.574 5.967-16.292-0.36367-17.257-0.2472-20.118 2.4289-3.624 3.3896-3.1595 3.371-8.1536 0.32601z" fill="#e6e6e6" stroke="#fff" stroke-linecap="round" stroke-width="1.2493"/>
 <path d="m412.1 613.8c-3.2637-1.2756-5.934-2.0055-5.934-1.6218s-1.1244-0.32-2.4985-1.5636-2.4985-1.8913-2.4985-1.4393c0 1.7914-9.276-9.5732-9.6122-11.777-0.21984-1.4405 0.95027-3.2154 3.0093-4.5647 2.8007-1.8353 6.5393-2.2433 22.163-2.4188 25.267-0.28375 32.318-1.5973 42.565-7.9304 4.4968-2.7792 8.7076-2.1516 7.4556 1.1112-5.1168 13.334-12.334 20.815-27.334 28.331-10.05 5.0357-17.856 5.571-27.316 1.8732z" fill="#b3b3b3" stroke="#fff" stroke-linecap="round" stroke-width="1.2493"/>
</svg>
