<?xml version="1.0" encoding="UTF-8"?><svg xmlns="http://www.w3.org/2000/svg" xmlns:xlink="http://www.w3.org/1999/xlink" fill-opacity="1" color-rendering="auto" color-interpolation="auto" text-rendering="auto" stroke="black" stroke-linecap="square" width="294" stroke-miterlimit="10" shape-rendering="auto" stroke-opacity="1" fill="black" stroke-dasharray="none" font-weight="normal" stroke-width="1" height="413" font-family="'Dialog'" font-style="normal" stroke-linejoin="miter" font-size="12px" stroke-dashoffset="0" image-rendering="auto">
  <!--Generated by ySVG 2.5-->
  <defs id="genericDefs"/>
  <g>
    <defs id="defs1">
      <clipPath clipPathUnits="userSpaceOnUse" id="clipPath1">
        <path d="M0 0 L294 0 L294 413 L0 413 L0 0 Z"/>
      </clipPath>
      <clipPath clipPathUnits="userSpaceOnUse" id="clipPath2">
        <path d="M5 -15 L299 -15 L299 398 L5 398 L5 -15 Z"/>
      </clipPath>
    </defs>
    <g fill="white" text-rendering="geometricPrecision" shape-rendering="geometricPrecision" transform="translate(-5,15)" stroke="white">
      <rect x="5" width="294" height="413" y="-15" clip-path="url(#clipPath2)" stroke="none"/>
    </g>
    <g fill="rgb(153,204,0)" text-rendering="geometricPrecision" shape-rendering="geometricPrecision" transform="matrix(1,0,0,1,-5,15)" stroke="rgb(153,204,0)">
      <rect x="135" width="40" height="30" y="0" clip-path="url(#clipPath2)" stroke="none"/>
    </g>
    <g text-rendering="geometricPrecision" stroke-miterlimit="1.45" shape-rendering="geometricPrecision" transform="matrix(1,0,0,1,-5,15)" stroke-linecap="butt">
      <rect fill="none" x="135" width="40" height="30" y="0" clip-path="url(#clipPath2)"/>
      <text x="137.7207" xml:space="preserve" y="19.1543" clip-path="url(#clipPath2)" font-family="sans-serif" stroke="none">ROOT</text>
    </g>
    <g fill="rgb(255,204,0)" text-rendering="geometricPrecision" shape-rendering="geometricPrecision" transform="matrix(1,0,0,1,-5,15)" stroke="rgb(255,204,0)">
      <rect x="140" width="30" height="30" y="122" clip-path="url(#clipPath2)" stroke="none"/>
    </g>
    <g text-rendering="geometricPrecision" stroke-miterlimit="1.45" shape-rendering="geometricPrecision" transform="matrix(1,0,0,1,-5,15)" stroke-linecap="butt">
      <rect fill="none" x="140" width="30" height="30" y="122" clip-path="url(#clipPath2)"/>
      <text x="151.1826" xml:space="preserve" y="141.1543" clip-path="url(#clipPath2)" font-family="sans-serif" stroke="none">2</text>
    </g>
    <g fill="rgb(255,204,0)" text-rendering="geometricPrecision" shape-rendering="geometricPrecision" transform="matrix(1,0,0,1,-5,15)" stroke="rgb(255,204,0)">
      <rect x="253.5" width="30" height="30" y="199" clip-path="url(#clipPath2)" stroke="none"/>
    </g>
    <g text-rendering="geometricPrecision" stroke-miterlimit="1.45" shape-rendering="geometricPrecision" transform="matrix(1,0,0,1,-5,15)" stroke-linecap="butt">
      <rect fill="none" x="253.5" width="30" height="30" y="199" clip-path="url(#clipPath2)"/>
      <text x="264.6826" xml:space="preserve" y="218.1543" clip-path="url(#clipPath2)" font-family="sans-serif" stroke="none">3</text>
    </g>
    <g fill="rgb(255,204,0)" text-rendering="geometricPrecision" shape-rendering="geometricPrecision" transform="matrix(1,0,0,1,-5,15)" stroke="rgb(255,204,0)">
      <rect x="163" width="30" height="30" y="199" clip-path="url(#clipPath2)" stroke="none"/>
    </g>
    <g text-rendering="geometricPrecision" stroke-miterlimit="1.45" shape-rendering="geometricPrecision" transform="matrix(1,0,0,1,-5,15)" stroke-linecap="butt">
      <rect fill="none" x="163" width="30" height="30" y="199" clip-path="url(#clipPath2)"/>
      <text x="174.1826" xml:space="preserve" y="218.1543" clip-path="url(#clipPath2)" font-family="sans-serif" stroke="none">4</text>
    </g>
    <g fill="rgb(255,204,0)" text-rendering="geometricPrecision" shape-rendering="geometricPrecision" transform="matrix(1,0,0,1,-5,15)" stroke="rgb(255,204,0)">
      <rect x="223" width="30" height="30" y="292" clip-path="url(#clipPath2)" stroke="none"/>
    </g>
    <g text-rendering="geometricPrecision" stroke-miterlimit="1.45" shape-rendering="geometricPrecision" transform="matrix(1,0,0,1,-5,15)" stroke-linecap="butt">
      <rect fill="none" x="223" width="30" height="30" y="292" clip-path="url(#clipPath2)"/>
      <text x="234.1826" xml:space="preserve" y="311.1543" clip-path="url(#clipPath2)" font-family="sans-serif" stroke="none">5</text>
    </g>
    <g fill="rgb(255,204,0)" text-rendering="geometricPrecision" shape-rendering="geometricPrecision" transform="matrix(1,0,0,1,-5,15)" stroke="rgb(255,204,0)">
      <rect x="43" width="30" height="30" y="292" clip-path="url(#clipPath2)" stroke="none"/>
    </g>
    <g text-rendering="geometricPrecision" stroke-miterlimit="1.45" shape-rendering="geometricPrecision" transform="matrix(1,0,0,1,-5,15)" stroke-linecap="butt">
      <rect fill="none" x="43" width="30" height="30" y="292" clip-path="url(#clipPath2)"/>
      <text x="54.1826" xml:space="preserve" y="311.1543" clip-path="url(#clipPath2)" font-family="sans-serif" stroke="none">6</text>
    </g>
    <g fill="rgb(255,204,0)" text-rendering="geometricPrecision" shape-rendering="geometricPrecision" transform="matrix(1,0,0,1,-5,15)" stroke="rgb(255,204,0)">
      <rect x="223" width="30" height="30" y="353" clip-path="url(#clipPath2)" stroke="none"/>
    </g>
    <g text-rendering="geometricPrecision" stroke-miterlimit="1.45" shape-rendering="geometricPrecision" transform="matrix(1,0,0,1,-5,15)" stroke-linecap="butt">
      <rect fill="none" x="223" width="30" height="30" y="353" clip-path="url(#clipPath2)"/>
      <text x="234.1826" xml:space="preserve" y="372.1543" clip-path="url(#clipPath2)" font-family="sans-serif" stroke="none">7</text>
    </g>
    <g fill="rgb(255,204,0)" text-rendering="geometricPrecision" shape-rendering="geometricPrecision" transform="matrix(1,0,0,1,-5,15)" stroke="rgb(255,204,0)">
      <rect x="72.5" width="30" height="30" y="61" clip-path="url(#clipPath2)" stroke="none"/>
    </g>
    <g text-rendering="geometricPrecision" stroke-miterlimit="1.45" shape-rendering="geometricPrecision" transform="matrix(1,0,0,1,-5,15)" stroke-linecap="butt">
      <rect fill="none" x="72.5" width="30" height="30" y="61" clip-path="url(#clipPath2)"/>
      <text x="83.6826" xml:space="preserve" y="80.1543" clip-path="url(#clipPath2)" font-family="sans-serif" stroke="none">8</text>
    </g>
    <g fill="rgb(255,204,0)" text-rendering="geometricPrecision" shape-rendering="geometricPrecision" transform="matrix(1,0,0,1,-5,15)" stroke="rgb(255,204,0)">
      <rect x="103" width="30" height="30" y="199" clip-path="url(#clipPath2)" stroke="none"/>
    </g>
    <g text-rendering="geometricPrecision" stroke-miterlimit="1.45" shape-rendering="geometricPrecision" transform="matrix(1,0,0,1,-5,15)" stroke-linecap="butt">
      <rect fill="none" x="103" width="30" height="30" y="199" clip-path="url(#clipPath2)"/>
      <text x="114.1826" xml:space="preserve" y="218.1543" clip-path="url(#clipPath2)" font-family="sans-serif" stroke="none">9</text>
    </g>
    <g fill="rgb(255,204,0)" text-rendering="geometricPrecision" shape-rendering="geometricPrecision" transform="matrix(1,0,0,1,-5,15)" stroke="rgb(255,204,0)">
      <rect x="163" width="30" height="30" y="292" clip-path="url(#clipPath2)" stroke="none"/>
    </g>
    <g text-rendering="geometricPrecision" stroke-miterlimit="1.45" shape-rendering="geometricPrecision" transform="matrix(1,0,0,1,-5,15)" stroke-linecap="butt">
      <rect fill="none" x="163" width="30" height="30" y="292" clip-path="url(#clipPath2)"/>
      <text x="170.3652" xml:space="preserve" y="311.1543" clip-path="url(#clipPath2)" font-family="sans-serif" stroke="none">10</text>
    </g>
    <g fill="rgb(255,204,0)" text-rendering="geometricPrecision" shape-rendering="geometricPrecision" transform="matrix(1,0,0,1,-5,15)" stroke="rgb(255,204,0)">
      <rect x="20" width="30" height="30" y="122" clip-path="url(#clipPath2)" stroke="none"/>
    </g>
    <g text-rendering="geometricPrecision" stroke-miterlimit="1.45" shape-rendering="geometricPrecision" transform="matrix(1,0,0,1,-5,15)" stroke-linecap="butt">
      <rect fill="none" x="20" width="30" height="30" y="122" clip-path="url(#clipPath2)"/>
      <text x="27.3652" xml:space="preserve" y="141.1543" clip-path="url(#clipPath2)" font-family="sans-serif" stroke="none">11</text>
    </g>
    <g fill="rgb(255,204,0)" text-rendering="geometricPrecision" shape-rendering="geometricPrecision" transform="matrix(1,0,0,1,-5,15)" stroke="rgb(255,204,0)">
      <rect x="43" width="30" height="30" y="353" clip-path="url(#clipPath2)" stroke="none"/>
    </g>
    <g text-rendering="geometricPrecision" stroke-miterlimit="1.45" shape-rendering="geometricPrecision" transform="matrix(1,0,0,1,-5,15)" stroke-linecap="butt">
      <rect fill="none" x="43" width="30" height="30" y="353" clip-path="url(#clipPath2)"/>
      <text x="50.3652" xml:space="preserve" y="372.1543" clip-path="url(#clipPath2)" font-family="sans-serif" stroke="none">12</text>
    </g>
    <g fill="rgb(255,204,0)" text-rendering="geometricPrecision" shape-rendering="geometricPrecision" transform="matrix(1,0,0,1,-5,15)" stroke="rgb(255,204,0)">
      <rect x="43" width="30" height="30" y="199" clip-path="url(#clipPath2)" stroke="none"/>
    </g>
    <g text-rendering="geometricPrecision" stroke-miterlimit="1.45" shape-rendering="geometricPrecision" transform="matrix(1,0,0,1,-5,15)" stroke-linecap="butt">
      <rect fill="none" x="43" width="30" height="30" y="199" clip-path="url(#clipPath2)"/>
      <text x="50.3652" xml:space="preserve" y="218.1543" clip-path="url(#clipPath2)" font-family="sans-serif" stroke="none">13</text>
    </g>
    <g fill="rgb(255,204,0)" text-rendering="geometricPrecision" shape-rendering="geometricPrecision" transform="matrix(1,0,0,1,-5,15)" stroke="rgb(255,204,0)">
      <rect x="103" width="30" height="30" y="292" clip-path="url(#clipPath2)" stroke="none"/>
    </g>
    <g text-rendering="geometricPrecision" stroke-miterlimit="1.45" shape-rendering="geometricPrecision" transform="matrix(1,0,0,1,-5,15)" stroke-linecap="butt">
      <rect fill="none" x="103" width="30" height="30" y="292" clip-path="url(#clipPath2)"/>
      <text x="110.3652" xml:space="preserve" y="311.1543" clip-path="url(#clipPath2)" font-family="sans-serif" stroke="none">14</text>
    </g>
    <g fill="rgb(255,204,0)" text-rendering="geometricPrecision" shape-rendering="geometricPrecision" transform="matrix(1,0,0,1,-5,15)" stroke="rgb(255,204,0)">
      <rect x="80" width="30" height="30" y="122" clip-path="url(#clipPath2)" stroke="none"/>
    </g>
    <g text-rendering="geometricPrecision" stroke-miterlimit="1.45" shape-rendering="geometricPrecision" transform="matrix(1,0,0,1,-5,15)" stroke-linecap="butt">
      <rect fill="none" x="80" width="30" height="30" y="122" clip-path="url(#clipPath2)"/>
      <text x="87.3652" xml:space="preserve" y="141.1543" clip-path="url(#clipPath2)" font-family="sans-serif" stroke="none">15</text>
      <path fill="none" d="M155 30 L155 113.9551" clip-path="url(#clipPath2)"/>
      <path d="M155 121.9551 L160 109.9551 L155 112.9551 L150 109.9551 Z" clip-path="url(#clipPath2)" stroke="none"/>
      <path fill="none" d="M165 152 L165 167.5 L268.5 167.5 L268.5 190.9692" clip-path="url(#clipPath2)"/>
      <path d="M268.5 198.9692 L273.5 186.9692 L268.5 189.9692 L263.5 186.9692 Z" clip-path="url(#clipPath2)" stroke="none"/>
      <path fill="none" d="M168.3333 30 L168.3333 45.5 L185.5 45.5 L185.5 190.9625" clip-path="url(#clipPath2)"/>
      <path d="M185.5 198.9625 L190.5 186.9625 L185.5 189.9625 L180.5 186.9625 Z" clip-path="url(#clipPath2)" stroke="none"/>
      <path fill="none" d="M155 152 L155 183.5 L170.5 183.5 L170.5 190.9697" clip-path="url(#clipPath2)"/>
      <path d="M170.5 198.9697 L175.5 186.9697 L170.5 189.9697 L165.5 186.9697 Z" clip-path="url(#clipPath2)" stroke="none"/>
      <path fill="none" d="M188 229 L188 244.5 L238 244.5 L238 283.9536" clip-path="url(#clipPath2)"/>
      <path d="M238 291.9536 L243 279.9536 L238 282.9536 L233 279.9536 Z" clip-path="url(#clipPath2)" stroke="none"/>
      <path fill="none" d="M168 229 L168 276.5 L58 276.5 L58 283.9697" clip-path="url(#clipPath2)"/>
      <path d="M58 291.9697 L63 279.9697 L58 282.9697 L53 279.9697 Z" clip-path="url(#clipPath2)" stroke="none"/>
      <path fill="none" d="M268.5 229 L268.5 337.5 L248 337.5 L248 344.9697" clip-path="url(#clipPath2)"/>
      <path d="M248 352.9697 L253 340.9697 L248 343.9697 L243 340.9697 Z" clip-path="url(#clipPath2)" stroke="none"/>
      <path fill="none" d="M238 322 L238 344.9697" clip-path="url(#clipPath2)"/>
      <path d="M238 352.9697 L243 340.9697 L238 343.9697 L233 340.9697 Z" clip-path="url(#clipPath2)" stroke="none"/>
      <path fill="none" d="M141.6667 30 L141.6667 45.5 L87.5 45.5 L87.5 52.9697" clip-path="url(#clipPath2)"/>
      <path d="M87.5 60.9697 L92.5 48.9697 L87.5 51.9697 L82.5 48.9697 Z" clip-path="url(#clipPath2)" stroke="none"/>
      <path fill="none" d="M145 152 L145 167.5 L118 167.5 L118 190.9692" clip-path="url(#clipPath2)"/>
      <path d="M118 198.9692 L123 186.9692 L118 189.9692 L113 186.9692 Z" clip-path="url(#clipPath2)" stroke="none"/>
      <path fill="none" d="M178 229 L178 283.9692" clip-path="url(#clipPath2)"/>
      <path d="M178 291.9692 L183 279.9692 L178 282.9692 L173 279.9692 Z" clip-path="url(#clipPath2)" stroke="none"/>
      <path fill="none" d="M80 91 L80 106.5 L35 106.5 L35 113.9697" clip-path="url(#clipPath2)"/>
      <path d="M35 121.9697 L40 109.9697 L35 112.9697 L30 109.9697 Z" clip-path="url(#clipPath2)" stroke="none"/>
      <path fill="none" d="M58 322 L58 344.9697" clip-path="url(#clipPath2)"/>
      <path d="M58 352.9697 L63 340.9697 L58 343.9697 L53 340.9697 Z" clip-path="url(#clipPath2)" stroke="none"/>
      <path fill="none" d="M118 229 L118 244.5 L27.5 244.5 L27.5 337.5 L48 337.5 L48 344.9697" clip-path="url(#clipPath2)"/>
      <path d="M48 352.9697 L53 340.9697 L48 343.9697 L43 340.9697 Z" clip-path="url(#clipPath2)" stroke="none"/>
      <path fill="none" d="M35 152 L35 167.5 L50.5 167.5 L50.5 190.9692" clip-path="url(#clipPath2)"/>
      <path d="M50.5 198.9692 L55.5 186.9692 L50.5 189.9692 L45.5 186.9692 Z" clip-path="url(#clipPath2)" stroke="none"/>
      <path fill="none" d="M58 229 L58 260.5 L118 260.5 L118 283.9692" clip-path="url(#clipPath2)"/>
      <path d="M118 291.9692 L123 279.9692 L118 282.9692 L113 279.9692 Z" clip-path="url(#clipPath2)" stroke="none"/>
      <path fill="none" d="M110.5 322 L110.5 337.5 L68 337.5 L68 344.9697" clip-path="url(#clipPath2)"/>
      <path d="M68 352.9697 L73 340.9697 L68 343.9697 L63 340.9697 Z" clip-path="url(#clipPath2)" stroke="none"/>
      <path fill="none" d="M125.5 322 L125.5 337.5 L228 337.5 L228 344.9697" clip-path="url(#clipPath2)"/>
      <path d="M228 352.9697 L233 340.9697 L228 343.9697 L223 340.9697 Z" clip-path="url(#clipPath2)" stroke="none"/>
      <path fill="none" d="M95 91 L95 113.9697" clip-path="url(#clipPath2)"/>
      <path d="M95 121.9697 L100 109.9697 L95 112.9697 L90 109.9697 Z" clip-path="url(#clipPath2)" stroke="none"/>
      <path fill="none" d="M95 152 L95 167.5 L65.5 167.5 L65.5 190.9692" clip-path="url(#clipPath2)"/>
      <path d="M65.5 198.9692 L70.5 186.9692 L65.5 189.9692 L60.5 186.9692 Z" clip-path="url(#clipPath2)" stroke="none"/>
    </g>
  </g>
</svg>
