<?xml version="1.0" encoding="UTF-8"?><svg xmlns="http://www.w3.org/2000/svg" xmlns:xlink="http://www.w3.org/1999/xlink" fill-opacity="1" color-rendering="auto" color-interpolation="auto" text-rendering="auto" stroke="black" stroke-linecap="square" width="366" stroke-miterlimit="10" shape-rendering="auto" stroke-opacity="1" fill="black" stroke-dasharray="none" font-weight="normal" stroke-width="1" height="237" font-family="'Dialog'" font-style="normal" stroke-linejoin="miter" font-size="12px" stroke-dashoffset="0" image-rendering="auto">
  <!--Generated by ySVG 2.5-->
  <defs id="genericDefs"/>
  <g>
    <defs id="defs1">
      <clipPath clipPathUnits="userSpaceOnUse" id="clipPath1">
        <path d="M0 0 L366 0 L366 237 L0 237 L0 0 Z"/>
      </clipPath>
      <clipPath clipPathUnits="userSpaceOnUse" id="clipPath2">
        <path d="M77 88 L443 88 L443 325 L77 325 L77 88 Z"/>
      </clipPath>
    </defs>
    <g fill="white" text-rendering="geometricPrecision" shape-rendering="geometricPrecision" transform="translate(-77,-88)" stroke="white">
      <rect x="77" width="366" height="237" y="88" clip-path="url(#clipPath2)" stroke="none"/>
    </g>
    <g fill="rgb(255,204,0)" text-rendering="geometricPrecision" shape-rendering="geometricPrecision" transform="matrix(1,0,0,1,-77,-88)" stroke="rgb(255,204,0)">
      <circle r="15" clip-path="url(#clipPath2)" cx="120" cy="218" stroke="none"/>
    </g>
    <g text-rendering="geometricPrecision" stroke-miterlimit="1.45" shape-rendering="geometricPrecision" transform="matrix(1,0,0,1,-77,-88)" stroke-linecap="butt">
      <circle fill="none" r="15" clip-path="url(#clipPath2)" cx="120" cy="218"/>
      <text x="115.4883" xml:space="preserve" y="222.1543" clip-path="url(#clipPath2)" font-family="sans-serif" stroke="none">H</text>
    </g>
    <g fill="rgb(255,204,0)" text-rendering="geometricPrecision" shape-rendering="geometricPrecision" transform="matrix(1,0,0,1,-77,-88)" stroke="rgb(255,204,0)">
      <circle r="15" clip-path="url(#clipPath2)" cx="241" cy="218" stroke="none"/>
    </g>
    <g text-rendering="geometricPrecision" stroke-miterlimit="1.45" shape-rendering="geometricPrecision" transform="matrix(1,0,0,1,-77,-88)" stroke-linecap="butt">
      <circle fill="none" r="15" clip-path="url(#clipPath2)" cx="241" cy="218"/>
      <text x="237.1914" xml:space="preserve" y="222.1543" clip-path="url(#clipPath2)" font-family="sans-serif" stroke="none">S</text>
    </g>
    <g fill="rgb(255,204,0)" text-rendering="geometricPrecision" shape-rendering="geometricPrecision" transform="matrix(1,0,0,1,-77,-88)" stroke="rgb(255,204,0)">
      <circle r="15" clip-path="url(#clipPath2)" cx="357" cy="161" stroke="none"/>
    </g>
    <g text-rendering="geometricPrecision" stroke-miterlimit="1.45" shape-rendering="geometricPrecision" transform="matrix(1,0,0,1,-77,-88)" stroke-linecap="butt">
      <circle fill="none" r="15" clip-path="url(#clipPath2)" cx="357" cy="161"/>
      <text x="352.3506" xml:space="preserve" y="165.1543" clip-path="url(#clipPath2)" font-family="sans-serif" stroke="none">G</text>
    </g>
    <g fill="rgb(255,204,0)" text-rendering="geometricPrecision" shape-rendering="geometricPrecision" transform="matrix(1,0,0,1,-77,-88)" stroke="rgb(255,204,0)">
      <circle r="15" clip-path="url(#clipPath2)" cx="357" cy="257" stroke="none"/>
    </g>
    <g text-rendering="geometricPrecision" stroke-miterlimit="1.45" shape-rendering="geometricPrecision" transform="matrix(1,0,0,1,-77,-88)" stroke-linecap="butt">
      <circle fill="none" r="15" clip-path="url(#clipPath2)" cx="357" cy="257"/>
      <text x="351.0674" xml:space="preserve" y="261.1543" clip-path="url(#clipPath2)" font-family="sans-serif" stroke="none">W</text>
      <text x="94.4443" xml:space="preserve" y="261.1543" clip-path="url(#clipPath2)" font-family="sans-serif" stroke="none">Burglary</text>
      <text x="200.6221" xml:space="preserve" y="257.1543" clip-path="url(#clipPath2)" font-family="sans-serif" stroke="none">Alarm sound</text>
      <text x="308.8516" xml:space="preserve" y="131.1543" clip-path="url(#clipPath2)" font-family="sans-serif" stroke="none">Gibbon's testimony</text>
      <text x="297.6973" xml:space="preserve" y="299.1543" clip-path="url(#clipPath2)" font-family="sans-serif" stroke="none">Watson's testimony</text>
      <path fill="none" d="M135 218 L218 218" clip-path="url(#clipPath2)"/>
      <path d="M226 218 L214 213 L217 218 L214 223 Z" clip-path="url(#clipPath2)" stroke="none"/>
      <path fill="none" d="M254.4625 211.3848 L336.3575 171.1433" clip-path="url(#clipPath2)"/>
      <path d="M343.5375 167.6152 L330.5624 168.4198 L335.46 171.5843 L334.9726 177.3949 Z" clip-path="url(#clipPath2)" stroke="none"/>
      <path fill="none" d="M255.2179 222.7802 L335.1992 249.6704" clip-path="url(#clipPath2)"/>
      <path d="M342.7821 252.2198 L333.0011 243.6564 L334.2513 249.3517 L329.8143 253.135 Z" clip-path="url(#clipPath2)" stroke="none"/>
    </g>
  </g>
</svg>
