<?xml version="1.0" encoding="UTF-8"?><svg xmlns="http://www.w3.org/2000/svg" xmlns:xlink="http://www.w3.org/1999/xlink" fill-opacity="1" color-rendering="auto" color-interpolation="auto" text-rendering="auto" stroke="black" stroke-linecap="square" width="468" stroke-miterlimit="10" shape-rendering="auto" stroke-opacity="1" fill="black" stroke-dasharray="none" font-weight="normal" stroke-width="1" height="469" font-family="'Dialog'" font-style="normal" stroke-linejoin="miter" font-size="12px" stroke-dashoffset="0" image-rendering="auto">
  <!--Generated by ySVG 2.5-->
  <defs id="genericDefs"/>
  <g>
    <defs id="defs1">
      <clipPath clipPathUnits="userSpaceOnUse" id="clipPath1">
        <path d="M0 0 L468 0 L468 469 L0 469 L0 0 Z"/>
      </clipPath>
      <clipPath clipPathUnits="userSpaceOnUse" id="clipPath2">
        <path d="M83 42 L551 42 L551 511 L83 511 L83 42 Z"/>
      </clipPath>
      <clipPath clipPathUnits="userSpaceOnUse" id="clipPath3">
        <path d="M98 430 L98 495 L198 495 L198 430 Z"/>
      </clipPath>
      <clipPath clipPathUnits="userSpaceOnUse" id="clipPath4">
        <path d="M263 430 L263 495 L363 495 L363 430 Z"/>
      </clipPath>
      <clipPath clipPathUnits="userSpaceOnUse" id="clipPath5">
        <path d="M98 306 L98 371 L198 371 L198 306 Z"/>
      </clipPath>
      <clipPath clipPathUnits="userSpaceOnUse" id="clipPath6">
        <path d="M263 306 L263 371 L363 371 L363 306 Z"/>
      </clipPath>
      <clipPath clipPathUnits="userSpaceOnUse" id="clipPath7">
        <path d="M428 306 L428 371 L528 371 L528 306 Z"/>
      </clipPath>
      <clipPath clipPathUnits="userSpaceOnUse" id="clipPath8">
        <path d="M428 430 L428 495 L528 495 L528 430 Z"/>
      </clipPath>
      <clipPath clipPathUnits="userSpaceOnUse" id="clipPath9">
        <path d="M98 181 L98 246 L198 246 L198 181 Z"/>
      </clipPath>
      <clipPath clipPathUnits="userSpaceOnUse" id="clipPath10">
        <path d="M263 181 L263 246 L363 246 L363 181 Z"/>
      </clipPath>
      <clipPath clipPathUnits="userSpaceOnUse" id="clipPath11">
        <path d="M183 57 L183 122 L283 122 L283 57 Z"/>
      </clipPath>
    </defs>
    <g fill="white" text-rendering="geometricPrecision" shape-rendering="geometricPrecision" transform="translate(-83,-42)" stroke="white">
      <rect x="83" width="468" height="469" y="42" clip-path="url(#clipPath2)" stroke="none"/>
    </g>
    <g fill="rgb(255,204,0)" text-rendering="geometricPrecision" shape-rendering="geometricPrecision" transform="matrix(1,0,0,1,-83,-42)" stroke="rgb(255,204,0)">
      <rect x="99" width="98" height="63" y="431" clip-path="url(#clipPath2)" stroke="none"/>
      <rect x="98" y="430" clip-path="url(#clipPath2)" fill="yellow" width="1" height="65" stroke="none"/>
      <rect x="99" y="430" clip-path="url(#clipPath2)" fill="yellow" width="98" height="1" stroke="none"/>
      <rect x="99" y="494" clip-path="url(#clipPath2)" fill="rgb(178,142,0)" width="99" height="1" stroke="none"/>
      <rect x="197" y="430" clip-path="url(#clipPath2)" fill="rgb(178,142,0)" width="1" height="64" stroke="none"/>
    </g>
    <g font-size="13px" stroke-linecap="butt" transform="matrix(1,0,0,1,-83,-42)" text-rendering="geometricPrecision" font-family="sans-serif" shape-rendering="geometricPrecision" font-weight="bold" stroke-miterlimit="1.45">
      <text x="130.161" xml:space="preserve" y="447.4067" clip-path="url(#clipPath3)" stroke="none">Opus</text>
    </g>
    <g text-rendering="geometricPrecision" shape-rendering="geometricPrecision" transform="matrix(1,0,0,1,-83,-42)">
      <line y2="455" fill="none" x1="99" clip-path="url(#clipPath3)" x2="197" y1="455"/>
      <text stroke-linecap="butt" x="103.8358" y="471.6113" clip-path="url(#clipPath3)" font-family="sans-serif" stroke="none" stroke-miterlimit="1.45" xml:space="preserve">Name: Opus</text>
      <text stroke-linecap="butt" x="103.8358" y="485.5801" clip-path="url(#clipPath3)" font-family="sans-serif" stroke="none" stroke-miterlimit="1.45" xml:space="preserve">Friend: Bill</text>
      <line y2="493" fill="none" x1="99" clip-path="url(#clipPath3)" x2="197" y1="493"/>
      <rect x="264" y="431" clip-path="url(#clipPath2)" fill="rgb(255,204,0)" width="98" height="63" stroke="none"/>
      <rect x="263" y="430" clip-path="url(#clipPath2)" fill="yellow" width="1" height="65" stroke="none"/>
      <rect x="264" y="430" clip-path="url(#clipPath2)" fill="yellow" width="98" height="1" stroke="none"/>
      <rect x="264" y="494" clip-path="url(#clipPath2)" fill="rgb(178,142,0)" width="99" height="1" stroke="none"/>
      <rect x="362" y="430" clip-path="url(#clipPath2)" fill="rgb(178,142,0)" width="1" height="64" stroke="none"/>
    </g>
    <g font-size="13px" stroke-linecap="butt" transform="matrix(1,0,0,1,-83,-42)" text-rendering="geometricPrecision" font-family="sans-serif" shape-rendering="geometricPrecision" font-weight="bold" stroke-miterlimit="1.45">
      <text x="302.2332" xml:space="preserve" y="447.4067" clip-path="url(#clipPath4)" stroke="none">Bill</text>
    </g>
    <g text-rendering="geometricPrecision" shape-rendering="geometricPrecision" transform="matrix(1,0,0,1,-83,-42)">
      <line y2="455" fill="none" x1="264" clip-path="url(#clipPath4)" x2="362" y1="455"/>
      <text stroke-linecap="butt" x="268.8717" y="471.6113" clip-path="url(#clipPath4)" font-family="sans-serif" stroke="none" stroke-miterlimit="1.45" xml:space="preserve">Name: Bill</text>
      <text stroke-linecap="butt" x="268.8717" y="485.5801" clip-path="url(#clipPath4)" font-family="sans-serif" stroke="none" stroke-miterlimit="1.45" xml:space="preserve">Friend: Opus</text>
      <line y2="493" fill="none" x1="264" clip-path="url(#clipPath4)" x2="362" y1="493"/>
      <rect x="99" y="307" clip-path="url(#clipPath2)" fill="rgb(255,204,0)" width="98" height="63" stroke="none"/>
      <rect x="98" y="306" clip-path="url(#clipPath2)" fill="yellow" width="1" height="65" stroke="none"/>
      <rect x="99" y="306" clip-path="url(#clipPath2)" fill="yellow" width="98" height="1" stroke="none"/>
      <rect x="99" y="370" clip-path="url(#clipPath2)" fill="rgb(178,142,0)" width="99" height="1" stroke="none"/>
      <rect x="197" y="306" clip-path="url(#clipPath2)" fill="rgb(178,142,0)" width="1" height="64" stroke="none"/>
    </g>
    <g font-size="13px" stroke-linecap="butt" transform="matrix(1,0,0,1,-83,-42)" text-rendering="geometricPrecision" font-family="sans-serif" shape-rendering="geometricPrecision" font-weight="bold" stroke-miterlimit="1.45">
      <text x="115.0314" xml:space="preserve" y="323.1466" clip-path="url(#clipPath5)" stroke="none">Penguins</text>
    </g>
    <g text-rendering="geometricPrecision" shape-rendering="geometricPrecision" transform="matrix(1,0,0,1,-83,-42)">
      <line y2="331" fill="none" x1="99" clip-path="url(#clipPath5)" x2="197" y1="331"/>
      <text stroke-linecap="butt" x="103.8358" y="347.3512" clip-path="url(#clipPath5)" font-family="sans-serif" stroke="none" stroke-miterlimit="1.45" xml:space="preserve">Flies: False</text>
      <line y2="355" fill="none" x1="99" clip-path="url(#clipPath5)" x2="197" y1="355"/>
      <rect x="264" y="307" clip-path="url(#clipPath2)" fill="rgb(255,204,0)" width="98" height="63" stroke="none"/>
      <rect x="263" y="306" clip-path="url(#clipPath2)" fill="yellow" width="1" height="65" stroke="none"/>
      <rect x="264" y="306" clip-path="url(#clipPath2)" fill="yellow" width="98" height="1" stroke="none"/>
      <rect x="264" y="370" clip-path="url(#clipPath2)" fill="rgb(178,142,0)" width="99" height="1" stroke="none"/>
      <rect x="362" y="306" clip-path="url(#clipPath2)" fill="rgb(178,142,0)" width="1" height="64" stroke="none"/>
    </g>
    <g font-size="13px" stroke-linecap="butt" transform="matrix(1,0,0,1,-83,-42)" text-rendering="geometricPrecision" font-family="sans-serif" shape-rendering="geometricPrecision" font-weight="bold" stroke-miterlimit="1.45">
      <text x="297.7391" xml:space="preserve" y="323.1466" clip-path="url(#clipPath6)" stroke="none">Cats</text>
    </g>
    <g fill="rgb(255,204,0)" text-rendering="geometricPrecision" shape-rendering="geometricPrecision" transform="matrix(1,0,0,1,-83,-42)" stroke="rgb(255,204,0)">
      <rect x="429" width="98" height="63" y="307" clip-path="url(#clipPath2)" stroke="none"/>
      <rect x="428" y="306" clip-path="url(#clipPath2)" fill="yellow" width="1" height="65" stroke="none"/>
      <rect x="429" y="306" clip-path="url(#clipPath2)" fill="yellow" width="98" height="1" stroke="none"/>
      <rect x="429" y="370" clip-path="url(#clipPath2)" fill="rgb(178,142,0)" width="99" height="1" stroke="none"/>
      <rect x="527" y="306" clip-path="url(#clipPath2)" fill="rgb(178,142,0)" width="1" height="64" stroke="none"/>
    </g>
    <g font-size="13px" stroke-linecap="butt" transform="matrix(1,0,0,1,-83,-42)" text-rendering="geometricPrecision" font-family="sans-serif" shape-rendering="geometricPrecision" font-weight="bold" stroke-miterlimit="1.45">
      <text x="462.5909" xml:space="preserve" y="323.1466" clip-path="url(#clipPath7)" stroke="none">Bats</text>
    </g>
    <g text-rendering="geometricPrecision" shape-rendering="geometricPrecision" transform="matrix(1,0,0,1,-83,-42)">
      <line y2="331" fill="none" x1="429" clip-path="url(#clipPath7)" x2="527" y1="331"/>
      <text stroke-linecap="butt" x="433.9075" y="347.3512" clip-path="url(#clipPath7)" font-family="sans-serif" stroke="none" stroke-miterlimit="1.45" xml:space="preserve">Legs: 2</text>
      <text stroke-linecap="butt" x="433.9075" y="361.3199" clip-path="url(#clipPath7)" font-family="sans-serif" stroke="none" stroke-miterlimit="1.45" xml:space="preserve">Flies: True</text>
      <line y2="369" fill="none" x1="429" clip-path="url(#clipPath7)" x2="527" y1="369"/>
      <rect x="429" y="431" clip-path="url(#clipPath2)" fill="rgb(255,204,0)" width="98" height="63" stroke="none"/>
      <rect x="428" y="430" clip-path="url(#clipPath2)" fill="yellow" width="1" height="65" stroke="none"/>
      <rect x="429" y="430" clip-path="url(#clipPath2)" fill="yellow" width="98" height="1" stroke="none"/>
      <rect x="429" y="494" clip-path="url(#clipPath2)" fill="rgb(178,142,0)" width="99" height="1" stroke="none"/>
      <rect x="527" y="430" clip-path="url(#clipPath2)" fill="rgb(178,142,0)" width="1" height="64" stroke="none"/>
    </g>
    <g font-size="13px" stroke-linecap="butt" transform="matrix(1,0,0,1,-83,-42)" text-rendering="geometricPrecision" font-family="sans-serif" shape-rendering="geometricPrecision" font-weight="bold" stroke-miterlimit="1.45">
      <text x="466.6502" xml:space="preserve" y="447.4067" clip-path="url(#clipPath8)" stroke="none">Pat</text>
    </g>
    <g text-rendering="geometricPrecision" shape-rendering="geometricPrecision" transform="matrix(1,0,0,1,-83,-42)">
      <line y2="455" fill="none" x1="429" clip-path="url(#clipPath8)" x2="527" y1="455"/>
      <text stroke-linecap="butt" x="433.9075" y="471.6113" clip-path="url(#clipPath8)" font-family="sans-serif" stroke="none" stroke-miterlimit="1.45" xml:space="preserve">Name: Pat</text>
      <line y2="479" fill="none" x1="429" clip-path="url(#clipPath8)" x2="527" y1="479"/>
      <rect x="99" y="182" clip-path="url(#clipPath2)" fill="rgb(255,204,0)" width="98" height="63" stroke="none"/>
      <rect x="98" y="181" clip-path="url(#clipPath2)" fill="yellow" width="1" height="65" stroke="none"/>
      <rect x="99" y="181" clip-path="url(#clipPath2)" fill="yellow" width="98" height="1" stroke="none"/>
      <rect x="99" y="245" clip-path="url(#clipPath2)" fill="rgb(178,142,0)" width="99" height="1" stroke="none"/>
      <rect x="197" y="181" clip-path="url(#clipPath2)" fill="rgb(178,142,0)" width="1" height="64" stroke="none"/>
    </g>
    <g font-size="13px" stroke-linecap="butt" transform="matrix(1,0,0,1,-83,-42)" text-rendering="geometricPrecision" font-family="sans-serif" shape-rendering="geometricPrecision" font-weight="bold" stroke-miterlimit="1.45">
      <text x="115.0314" xml:space="preserve" y="198.8864" clip-path="url(#clipPath9)" stroke="none">Penguins</text>
    </g>
    <g text-rendering="geometricPrecision" shape-rendering="geometricPrecision" transform="matrix(1,0,0,1,-83,-42)">
      <line y2="206" fill="none" x1="99" clip-path="url(#clipPath9)" x2="197" y1="206"/>
      <text stroke-linecap="butt" x="103.8358" y="223.091" clip-path="url(#clipPath9)" font-family="sans-serif" stroke="none" stroke-miterlimit="1.45" xml:space="preserve">Legs: 2</text>
      <text stroke-linecap="butt" x="103.8358" y="237.0598" clip-path="url(#clipPath9)" font-family="sans-serif" stroke="none" stroke-miterlimit="1.45" xml:space="preserve">Flies: True</text>
      <line y2="244" fill="none" x1="99" clip-path="url(#clipPath9)" x2="197" y1="244"/>
      <rect x="264" y="182" clip-path="url(#clipPath2)" fill="rgb(255,204,0)" width="98" height="63" stroke="none"/>
      <rect x="263" y="181" clip-path="url(#clipPath2)" fill="yellow" width="1" height="65" stroke="none"/>
      <rect x="264" y="181" clip-path="url(#clipPath2)" fill="yellow" width="98" height="1" stroke="none"/>
      <rect x="264" y="245" clip-path="url(#clipPath2)" fill="rgb(178,142,0)" width="99" height="1" stroke="none"/>
      <rect x="362" y="181" clip-path="url(#clipPath2)" fill="rgb(178,142,0)" width="1" height="64" stroke="none"/>
    </g>
    <g font-size="13px" stroke-linecap="butt" transform="matrix(1,0,0,1,-83,-42)" text-rendering="geometricPrecision" font-family="sans-serif" shape-rendering="geometricPrecision" font-weight="bold" stroke-miterlimit="1.45">
      <text x="280.0672" xml:space="preserve" y="198.8864" clip-path="url(#clipPath10)" stroke="none">Penguins</text>
    </g>
    <g text-rendering="geometricPrecision" shape-rendering="geometricPrecision" transform="matrix(1,0,0,1,-83,-42)">
      <line y2="206" fill="none" x1="264" clip-path="url(#clipPath10)" x2="362" y1="206"/>
      <text stroke-linecap="butt" x="268.8717" y="223.091" clip-path="url(#clipPath10)" font-family="sans-serif" stroke="none" stroke-miterlimit="1.45" xml:space="preserve">Legs: 4</text>
      <line y2="230" fill="none" x1="264" clip-path="url(#clipPath10)" x2="362" y1="230"/>
      <rect x="184" y="58" clip-path="url(#clipPath2)" fill="rgb(255,204,0)" width="98" height="63" stroke="none"/>
      <rect x="183" y="57" clip-path="url(#clipPath2)" fill="yellow" width="1" height="65" stroke="none"/>
      <rect x="184" y="57" clip-path="url(#clipPath2)" fill="yellow" width="98" height="1" stroke="none"/>
      <rect x="184" y="121" clip-path="url(#clipPath2)" fill="rgb(178,142,0)" width="99" height="1" stroke="none"/>
      <rect x="282" y="57" clip-path="url(#clipPath2)" fill="rgb(178,142,0)" width="1" height="64" stroke="none"/>
    </g>
    <g font-size="13px" stroke-linecap="butt" transform="matrix(1,0,0,1,-83,-42)" text-rendering="geometricPrecision" font-family="sans-serif" shape-rendering="geometricPrecision" font-weight="bold" stroke-miterlimit="1.45">
      <text x="199.2889" xml:space="preserve" y="74.6263" clip-path="url(#clipPath11)" stroke="none">Penguins</text>
    </g>
    <g text-rendering="geometricPrecision" shape-rendering="geometricPrecision" transform="matrix(1,0,0,1,-83,-42)">
      <line y2="82" fill="none" x1="184" clip-path="url(#clipPath11)" x2="282" y1="82"/>
      <text stroke-linecap="butt" x="188.0934" y="98.8308" clip-path="url(#clipPath11)" font-family="sans-serif" stroke="none" stroke-miterlimit="1.45" xml:space="preserve">Alive: True</text>
      <text stroke-linecap="butt" x="188.0934" y="112.7996" clip-path="url(#clipPath11)" font-family="sans-serif" stroke="none" stroke-miterlimit="1.45" xml:space="preserve">Flies: False</text>
      <line y2="120" fill="none" x1="184" clip-path="url(#clipPath11)" x2="282" y1="120"/>
      <path fill="none" stroke-miterlimit="1.45" d="M198.8382 462.8538 L255.8534 462.8538" clip-path="url(#clipPath2)" stroke-linecap="butt"/>
      <path stroke-miterlimit="1.45" d="M263.8535 462.8538 L251.8535 457.8538 L254.8535 462.8538 L251.8535 467.8538 Z" clip-path="url(#clipPath2)" stroke-linecap="butt" stroke="none"/>
      <path fill="none" stroke-miterlimit="1.45" d="M263.8694 462.8538 L206.8541 462.8538" clip-path="url(#clipPath2)" stroke-linecap="butt"/>
      <path stroke-miterlimit="1.45" d="M198.8541 462.8538 L210.8541 467.8538 L207.8541 462.8538 L210.8541 457.8538 Z" clip-path="url(#clipPath2)" stroke-linecap="butt" stroke="none"/>
      <path fill="none" stroke-miterlimit="1.45" d="M148.8358 430.3629 L148.8358 379.0803" clip-path="url(#clipPath2)" stroke-linecap="butt"/>
      <path stroke-miterlimit="1.45" d="M148.8358 371.0803 L143.8358 383.0803 L148.8358 380.0803 L153.8358 383.0803 Z" clip-path="url(#clipPath2)" stroke-linecap="butt" stroke="none"/>
      <text stroke-linecap="butt" x="154.1562" y="404.878" clip-path="url(#clipPath2)" font-family="sans-serif" stroke="none" stroke-miterlimit="1.45" xml:space="preserve">Member</text>
      <path fill="none" stroke-miterlimit="1.45" d="M313.8717 430.3629 L313.8717 379.0803" clip-path="url(#clipPath2)" stroke-linecap="butt"/>
      <path stroke-miterlimit="1.45" d="M313.8717 371.0803 L308.8717 383.0803 L313.8717 380.0803 L318.8717 383.0803 Z" clip-path="url(#clipPath2)" stroke-linecap="butt" stroke="none"/>
      <text stroke-linecap="butt" x="319.192" y="404.878" clip-path="url(#clipPath2)" font-family="sans-serif" stroke="none" stroke-miterlimit="1.45" xml:space="preserve">Member</text>
      <path fill="none" stroke-miterlimit="1.45" d="M478.9075 430.3629 L478.9075 379.0803" clip-path="url(#clipPath2)" stroke-linecap="butt"/>
      <path stroke-miterlimit="1.45" d="M478.9075 371.0803 L473.9075 383.0803 L478.9075 380.0803 L483.9075 383.0803 Z" clip-path="url(#clipPath2)" stroke-linecap="butt" stroke="none"/>
      <text stroke-linecap="butt" x="484.2278" y="404.878" clip-path="url(#clipPath2)" font-family="sans-serif" stroke="none" stroke-miterlimit="1.45" xml:space="preserve">Member</text>
      <path fill="none" stroke-miterlimit="1.45" d="M148.8358 306.1027 L148.8358 254.8201" clip-path="url(#clipPath2)" stroke-linecap="butt"/>
      <path stroke-miterlimit="1.45" d="M148.8358 246.8201 L143.8358 258.8201 L148.8358 255.8201 L153.8358 258.8201 Z" clip-path="url(#clipPath2)" stroke-linecap="butt" stroke="none"/>
      <text stroke-linecap="butt" x="158.246" y="280.6178" clip-path="url(#clipPath2)" font-family="sans-serif" stroke="none" stroke-miterlimit="1.45" xml:space="preserve">Subset</text>
      <path fill="none" stroke-miterlimit="1.45" d="M313.8717 306.1027 L313.8717 254.8201" clip-path="url(#clipPath2)" stroke-linecap="butt"/>
      <path stroke-miterlimit="1.45" d="M313.8717 246.8201 L308.8717 258.8201 L313.8717 255.8201 L318.8717 258.8201 Z" clip-path="url(#clipPath2)" stroke-linecap="butt" stroke="none"/>
      <text stroke-linecap="butt" x="323.2818" y="280.6178" clip-path="url(#clipPath2)" font-family="sans-serif" stroke="none" stroke-miterlimit="1.45" xml:space="preserve">Subset</text>
      <path fill="none" stroke-miterlimit="1.45" d="M435.7347 306.0876 L363.4324 251.6491" clip-path="url(#clipPath2)" stroke-linecap="butt"/>
      <path stroke-miterlimit="1.45" d="M357.0414 246.8372 L363.6205 258.0495 L364.2313 252.2506 L369.6354 250.0607 Z" clip-path="url(#clipPath2)" stroke-linecap="butt" stroke="none"/>
      <text stroke-linecap="butt" x="402.0255" y="262.8111" clip-path="url(#clipPath2)" font-family="sans-serif" stroke="none" stroke-miterlimit="1.45" xml:space="preserve">Subset</text>
      <path fill="none" stroke-miterlimit="1.45" d="M292.7502 181.8426 L258.5869 129.2897" clip-path="url(#clipPath2)" stroke-linecap="butt"/>
      <path stroke-miterlimit="1.45" d="M254.2267 122.5824 L256.575 135.3685 L259.132 130.1281 L264.9591 129.9182 Z" clip-path="url(#clipPath2)" stroke-linecap="butt" stroke="none"/>
      <text stroke-linecap="butt" x="287.6715" y="154.8148" clip-path="url(#clipPath2)" font-family="sans-serif" stroke="none" stroke-miterlimit="1.45" xml:space="preserve">Subset</text>
      <path fill="none" stroke-miterlimit="1.45" d="M170.867 181.8426 L206.5601 129.2037" clip-path="url(#clipPath2)" stroke-linecap="butt"/>
      <path stroke-miterlimit="1.45" d="M211.0498 122.5824 L200.1768 129.7083 L205.9988 130.0314 L208.4535 135.3205 Z" clip-path="url(#clipPath2)" stroke-linecap="butt" stroke="none"/>
      <text stroke-linecap="butt" x="205.2457" y="158.3862" clip-path="url(#clipPath2)" font-family="sans-serif" stroke="none" stroke-miterlimit="1.45" xml:space="preserve">Subset</text>
    </g>
  </g>
</svg>
