<?xml version="1.0" encoding="UTF-8"?><svg xmlns="http://www.w3.org/2000/svg" xmlns:xlink="http://www.w3.org/1999/xlink" fill-opacity="1" color-rendering="auto" color-interpolation="auto" text-rendering="auto" stroke="black" stroke-linecap="square" width="1015" stroke-miterlimit="10" shape-rendering="auto" stroke-opacity="1" fill="black" stroke-dasharray="none" font-weight="normal" stroke-width="1" height="258" font-family="'Dialog'" font-style="normal" stroke-linejoin="miter" font-size="12px" stroke-dashoffset="0" image-rendering="auto">
  <!--Generated by ySVG 2.5-->
  <defs id="genericDefs"/>
  <g>
    <defs id="defs1">
      <clipPath clipPathUnits="userSpaceOnUse" id="clipPath1">
        <path d="M0 0 L1015 0 L1015 258 L0 258 L0 0 Z"/>
      </clipPath>
      <clipPath clipPathUnits="userSpaceOnUse" id="clipPath2">
        <path d="M-15 -251 L1000 -251 L1000 7 L-15 7 L-15 -251 Z"/>
      </clipPath>
    </defs>
    <g fill="white" text-rendering="geometricPrecision" shape-rendering="geometricPrecision" transform="translate(15,251)" stroke="white">
      <rect x="-15" width="1015" height="258" y="-251" clip-path="url(#clipPath2)" stroke="none"/>
    </g>
    <g fill="rgb(255,204,0)" text-rendering="geometricPrecision" shape-rendering="geometricPrecision" transform="matrix(1,0,0,1,15,251)" stroke="rgb(255,204,0)">
      <rect x="0" width="60" height="30" y="-109.5" clip-path="url(#clipPath2)" stroke="none"/>
    </g>
    <g text-rendering="geometricPrecision" stroke-miterlimit="1.45" shape-rendering="geometricPrecision" transform="matrix(1,0,0,1,15,251)" stroke-linecap="butt">
      <rect fill="none" x="0" width="60" height="30" y="-109.5" clip-path="url(#clipPath2)"/>
      <text x="11.7393" xml:space="preserve" y="-90.3457" clip-path="url(#clipPath2)" font-family="sans-serif" stroke="none">Vaasa</text>
    </g>
    <g fill="rgb(255,204,0)" text-rendering="geometricPrecision" shape-rendering="geometricPrecision" transform="matrix(1,0,0,1,15,251)" stroke="rgb(255,204,0)">
      <rect x="121" width="60" height="30" y="-136" clip-path="url(#clipPath2)" stroke="none"/>
    </g>
    <g text-rendering="geometricPrecision" stroke-miterlimit="1.45" shape-rendering="geometricPrecision" transform="matrix(1,0,0,1,15,251)" stroke-linecap="butt">
      <rect fill="none" x="121" width="60" height="30" y="-136" clip-path="url(#clipPath2)"/>
      <text x="133.167" xml:space="preserve" y="-116.8457" clip-path="url(#clipPath2)" font-family="sans-serif" stroke="none">Laihia</text>
    </g>
    <g fill="rgb(255,204,0)" text-rendering="geometricPrecision" shape-rendering="geometricPrecision" transform="matrix(1,0,0,1,15,251)" stroke="rgb(255,204,0)">
      <rect x="394" width="60" height="30" y="-140.5" clip-path="url(#clipPath2)" stroke="none"/>
    </g>
    <g text-rendering="geometricPrecision" stroke-miterlimit="1.45" shape-rendering="geometricPrecision" transform="matrix(1,0,0,1,15,251)" stroke-linecap="butt">
      <rect fill="none" x="394" width="60" height="30" y="-140.5" clip-path="url(#clipPath2)"/>
      <text x="396.874" xml:space="preserve" y="-121.3457" clip-path="url(#clipPath2)" font-family="sans-serif" stroke="none">Seinäjoki</text>
    </g>
    <g fill="rgb(255,204,0)" text-rendering="geometricPrecision" shape-rendering="geometricPrecision" transform="matrix(1,0,0,1,15,251)" stroke="rgb(255,204,0)">
      <rect x="242" width="60" height="30" y="-178.5" clip-path="url(#clipPath2)" stroke="none"/>
    </g>
    <g text-rendering="geometricPrecision" stroke-miterlimit="1.45" shape-rendering="geometricPrecision" transform="matrix(1,0,0,1,15,251)" stroke-linecap="butt">
      <rect fill="none" x="242" width="60" height="30" y="-178.5" clip-path="url(#clipPath2)"/>
      <text x="249.708" xml:space="preserve" y="-159.3457" clip-path="url(#clipPath2)" font-family="sans-serif" stroke="none">Ylistaro</text>
    </g>
    <g fill="rgb(255,204,0)" text-rendering="geometricPrecision" shape-rendering="geometricPrecision" transform="matrix(1,0,0,1,15,251)" stroke="rgb(255,204,0)">
      <rect x="667" width="60" height="30" y="-87.5" clip-path="url(#clipPath2)" stroke="none"/>
    </g>
    <g text-rendering="geometricPrecision" stroke-miterlimit="1.45" shape-rendering="geometricPrecision" transform="matrix(1,0,0,1,15,251)" stroke-linecap="butt">
      <rect fill="none" x="667" width="60" height="30" y="-87.5" clip-path="url(#clipPath2)"/>
      <text x="670.8789" xml:space="preserve" y="-68.3457" clip-path="url(#clipPath2)" font-family="sans-serif" stroke="none">Kauhava</text>
    </g>
    <g fill="rgb(255,204,0)" text-rendering="geometricPrecision" shape-rendering="geometricPrecision" transform="matrix(1,0,0,1,15,251)" stroke="rgb(255,204,0)">
      <rect x="394" width="60" height="30" y="-83" clip-path="url(#clipPath2)" stroke="none"/>
    </g>
    <g text-rendering="geometricPrecision" stroke-miterlimit="1.45" shape-rendering="geometricPrecision" transform="matrix(1,0,0,1,15,251)" stroke-linecap="butt">
      <rect fill="none" x="394" width="60" height="30" y="-83" clip-path="url(#clipPath2)"/>
      <text x="408.54" xml:space="preserve" y="-63.8457" clip-path="url(#clipPath2)" font-family="sans-serif" stroke="none">Vöyri</text>
    </g>
    <g fill="rgb(255,204,0)" text-rendering="geometricPrecision" shape-rendering="geometricPrecision" transform="matrix(1,0,0,1,15,251)" stroke="rgb(255,204,0)">
      <rect x="515" width="60" height="30" y="-45" clip-path="url(#clipPath2)" stroke="none"/>
    </g>
    <g text-rendering="geometricPrecision" stroke-miterlimit="1.45" shape-rendering="geometricPrecision" transform="matrix(1,0,0,1,15,251)" stroke-linecap="butt">
      <rect fill="none" x="515" width="60" height="30" y="-45" clip-path="url(#clipPath2)"/>
      <text x="528.251" xml:space="preserve" y="-25.8457" clip-path="url(#clipPath2)" font-family="sans-serif" stroke="none">Jepua</text>
    </g>
    <g fill="rgb(255,204,0)" text-rendering="geometricPrecision" shape-rendering="geometricPrecision" transform="matrix(1,0,0,1,15,251)" stroke="rgb(255,204,0)">
      <rect x="242" width="60" height="30" y="-128.5" clip-path="url(#clipPath2)" stroke="none"/>
    </g>
    <g text-rendering="geometricPrecision" stroke-miterlimit="1.45" shape-rendering="geometricPrecision" transform="matrix(1,0,0,1,15,251)" stroke-linecap="butt">
      <rect fill="none" x="242" width="60" height="30" y="-128.5" clip-path="url(#clipPath2)"/>
      <text x="248.5625" xml:space="preserve" y="-109.3457" clip-path="url(#clipPath2)" font-family="sans-serif" stroke="none">Ilmajoki</text>
    </g>
    <g fill="rgb(255,204,0)" text-rendering="geometricPrecision" shape-rendering="geometricPrecision" transform="matrix(1,0,0,1,15,251)" stroke="rgb(255,204,0)">
      <rect x="515" width="60" height="30" y="-178.5" clip-path="url(#clipPath2)" stroke="none"/>
    </g>
    <g text-rendering="geometricPrecision" stroke-miterlimit="1.45" shape-rendering="geometricPrecision" transform="matrix(1,0,0,1,15,251)" stroke-linecap="butt">
      <rect fill="none" x="515" width="60" height="30" y="-178.5" clip-path="url(#clipPath2)"/>
      <text x="526.6924" xml:space="preserve" y="-159.3457" clip-path="url(#clipPath2)" font-family="sans-serif" stroke="none">Lapua</text>
    </g>
    <g fill="rgb(255,204,0)" text-rendering="geometricPrecision" shape-rendering="geometricPrecision" transform="matrix(1,0,0,1,15,251)" stroke="rgb(255,204,0)">
      <rect x="667" width="60" height="30" y="-186" clip-path="url(#clipPath2)" stroke="none"/>
    </g>
    <g text-rendering="geometricPrecision" stroke-miterlimit="1.45" shape-rendering="geometricPrecision" transform="matrix(1,0,0,1,15,251)" stroke-linecap="butt">
      <rect fill="none" x="667" width="60" height="30" y="-186" clip-path="url(#clipPath2)"/>
      <text x="674.5234" xml:space="preserve" y="-166.8457" clip-path="url(#clipPath2)" font-family="sans-serif" stroke="none">Alajärvi</text>
    </g>
    <g fill="rgb(255,204,0)" text-rendering="geometricPrecision" shape-rendering="geometricPrecision" transform="matrix(1,0,0,1,15,251)" stroke="rgb(255,204,0)">
      <rect x="924.36" width="60" height="30" y="-95" clip-path="url(#clipPath2)" stroke="none"/>
    </g>
    <g text-rendering="geometricPrecision" stroke-miterlimit="1.45" shape-rendering="geometricPrecision" transform="matrix(1,0,0,1,15,251)" stroke-linecap="butt">
      <rect fill="none" x="924.36" width="60" height="30" y="-95" clip-path="url(#clipPath2)"/>
      <text x="931.9098" xml:space="preserve" y="-75.8457" clip-path="url(#clipPath2)" font-family="sans-serif" stroke="none">Vimpeli</text>
    </g>
    <g fill="rgb(255,204,0)" text-rendering="geometricPrecision" shape-rendering="geometricPrecision" transform="matrix(1,0,0,1,15,251)" stroke="rgb(255,204,0)">
      <rect x="788" width="75.36" height="30" y="-95" clip-path="url(#clipPath2)" stroke="none"/>
    </g>
    <g text-rendering="geometricPrecision" stroke-miterlimit="1.45" shape-rendering="geometricPrecision" transform="matrix(1,0,0,1,15,251)" stroke-linecap="butt">
      <rect fill="none" x="788" width="75.36" height="30" y="-95" clip-path="url(#clipPath2)"/>
      <text x="794.3382" xml:space="preserve" y="-75.8457" clip-path="url(#clipPath2)" font-family="sans-serif" stroke="none">Lappajärvi</text>
    </g>
    <g fill="rgb(255,204,0)" text-rendering="geometricPrecision" shape-rendering="geometricPrecision" transform="matrix(1,0,0,1,15,251)" stroke="rgb(255,204,0)">
      <rect x="788" width="75.36" height="30" y="-45" clip-path="url(#clipPath2)" stroke="none"/>
    </g>
    <g text-rendering="geometricPrecision" stroke-miterlimit="1.45" shape-rendering="geometricPrecision" transform="matrix(1,0,0,1,15,251)" stroke-linecap="butt">
      <rect fill="none" x="788" width="75.36" height="30" y="-45" clip-path="url(#clipPath2)"/>
      <text x="803.6429" xml:space="preserve" y="-25.8457" clip-path="url(#clipPath2)" font-family="sans-serif" stroke="none">Evijärvi</text>
    </g>
    <g fill="rgb(255,204,0)" text-rendering="geometricPrecision" shape-rendering="geometricPrecision" transform="matrix(1,0,0,1,15,251)" stroke="rgb(255,204,0)">
      <rect x="795.68" width="60" height="30" y="-236" clip-path="url(#clipPath2)" stroke="none"/>
    </g>
    <g text-rendering="geometricPrecision" stroke-miterlimit="1.45" shape-rendering="geometricPrecision" transform="matrix(1,0,0,1,15,251)" stroke-linecap="butt">
      <rect fill="none" x="795.68" width="60" height="30" y="-236" clip-path="url(#clipPath2)"/>
      <text x="801.6155" xml:space="preserve" y="-216.8457" clip-path="url(#clipPath2)" font-family="sans-serif" stroke="none">Kyyjärvi</text>
    </g>
    <g fill="rgb(255,204,0)" text-rendering="geometricPrecision" shape-rendering="geometricPrecision" transform="matrix(1,0,0,1,15,251)" stroke="rgb(255,204,0)">
      <rect x="795.68" width="60" height="30" y="-186" clip-path="url(#clipPath2)" stroke="none"/>
    </g>
    <g text-rendering="geometricPrecision" stroke-miterlimit="1.45" shape-rendering="geometricPrecision" transform="matrix(1,0,0,1,15,251)" stroke-linecap="butt">
      <rect fill="none" x="795.68" width="60" height="30" y="-186" clip-path="url(#clipPath2)"/>
      <text x="798.2816" xml:space="preserve" y="-166.8457" clip-path="url(#clipPath2)" font-family="sans-serif" stroke="none">Kuortane</text>
      <path fill="none" d="M60 -102 L90.5 -102 L90.5 -121 L112.9702 -121" clip-path="url(#clipPath2)"/>
      <path d="M120.9702 -121 L108.9702 -126 L111.9702 -121 L108.9702 -116 Z" clip-path="url(#clipPath2)" stroke="none"/>
      <text x="73.8111" xml:space="preserve" y="-110.1526" clip-path="url(#clipPath2)" font-family="sans-serif" stroke="none">26</text>
      <path fill="none" d="M181 -128.5 L211.5 -128.5 L211.5 -163.5 L233.9702 -163.5" clip-path="url(#clipPath2)"/>
      <path d="M241.9702 -163.5 L229.9702 -168.5 L232.9702 -163.5 L229.9702 -158.5 Z" clip-path="url(#clipPath2)" stroke="none"/>
      <text x="215.2804" xml:space="preserve" y="-141.8457" clip-path="url(#clipPath2)" font-family="sans-serif" stroke="none">29</text>
      <path fill="none" d="M302 -156 L363.5 -156 L363.5 -133 L385.9702 -133" clip-path="url(#clipPath2)"/>
      <path d="M393.9702 -133 L381.9702 -138 L384.9702 -133 L381.9702 -128 Z" clip-path="url(#clipPath2)" stroke="none"/>
      <text x="309" xml:space="preserve" y="-140.1922" clip-path="url(#clipPath2)" font-family="sans-serif" stroke="none">27</text>
      <path fill="none" d="M60 -87 L90.5 -87 L90.5 -68 L385.963 -68" clip-path="url(#clipPath2)"/>
      <path d="M393.963 -68 L381.963 -73 L384.963 -68 L381.963 -63 Z" clip-path="url(#clipPath2)" stroke="none"/>
      <text x="71.904" xml:space="preserve" y="-73.0984" clip-path="url(#clipPath2)" font-family="sans-serif" stroke="none">32</text>
      <path fill="none" d="M454 -75.5 L605.5 -75.5 L605.5 -72.5 L658.97 -72.5" clip-path="url(#clipPath2)"/>
      <path d="M666.97 -72.5 L654.97 -77.5 L657.97 -72.5 L654.97 -67.5 Z" clip-path="url(#clipPath2)" stroke="none"/>
      <text x="580.8652" xml:space="preserve" y="-81.214" clip-path="url(#clipPath2)" font-family="sans-serif" stroke="none">45</text>
      <path fill="none" d="M454 -60.5 L484.5 -60.5 L484.5 -30 L506.9702 -30" clip-path="url(#clipPath2)"/>
      <path d="M514.9702 -30 L502.9702 -35 L505.9702 -30 L502.9702 -25 Z" clip-path="url(#clipPath2)" stroke="none"/>
      <text x="489.861" xml:space="preserve" y="-13.7157" clip-path="url(#clipPath2)" font-family="sans-serif" stroke="none">42</text>
      <path fill="none" d="M575 -30 L605.5 -30 L605.5 -62.5 L658.97 -62.5" clip-path="url(#clipPath2)"/>
      <path d="M666.97 -62.5 L654.97 -67.5 L657.97 -62.5 L654.97 -57.5 Z" clip-path="url(#clipPath2)" stroke="none"/>
      <text x="586.7849" xml:space="preserve" y="-36.9467" clip-path="url(#clipPath2)" font-family="sans-serif" stroke="none">56</text>
      <path fill="none" d="M181 -113.5 L233.9702 -113.5" clip-path="url(#clipPath2)"/>
      <path d="M241.9702 -113.5 L229.9702 -118.5 L232.9702 -113.5 L229.9702 -108.5 Z" clip-path="url(#clipPath2)" stroke="none"/>
      <text x="203.8652" xml:space="preserve" y="-100.5082" clip-path="url(#clipPath2)" font-family="sans-serif" stroke="none">45</text>
      <path fill="none" d="M302 -113.5 L332.5 -113.5 L332.5 -118 L385.97 -118" clip-path="url(#clipPath2)"/>
      <path d="M393.97 -118 L381.97 -123 L384.97 -118 L381.97 -113 Z" clip-path="url(#clipPath2)" stroke="none"/>
      <text x="309" xml:space="preserve" y="-117.9449" clip-path="url(#clipPath2)" font-family="sans-serif" stroke="none">18</text>
      <path fill="none" d="M454 -125.5 L484.5 -125.5 L484.5 -156 L506.9702 -156" clip-path="url(#clipPath2)"/>
      <path d="M514.9702 -156 L502.9702 -161 L505.9702 -156 L502.9702 -151 Z" clip-path="url(#clipPath2)" stroke="none"/>
      <text x="489.6579" xml:space="preserve" y="-138.1666" clip-path="url(#clipPath2)" font-family="sans-serif" stroke="none">26</text>
      <path fill="none" d="M302 -171 L506.974 -171" clip-path="url(#clipPath2)"/>
      <path d="M514.974 -171 L502.974 -176 L505.974 -171 L502.974 -166 Z" clip-path="url(#clipPath2)" stroke="none"/>
      <text x="398.8991" xml:space="preserve" y="-178.7887" clip-path="url(#clipPath2)" font-family="sans-serif" stroke="none">28</text>
      <path fill="none" d="M575 -156 L636.5 -156 L636.5 -82.5 L658.9702 -82.5" clip-path="url(#clipPath2)"/>
      <path d="M666.9702 -82.5 L654.9702 -87.5 L657.9702 -82.5 L654.9702 -77.5 Z" clip-path="url(#clipPath2)" stroke="none"/>
      <text x="617.4871" xml:space="preserve" y="-124.6954" clip-path="url(#clipPath2)" font-family="sans-serif" stroke="none">18</text>
      <path fill="none" d="M575 -171 L658.9551 -171" clip-path="url(#clipPath2)"/>
      <path d="M666.9551 -171 L654.9551 -176 L657.9551 -171 L654.9551 -166 Z" clip-path="url(#clipPath2)" stroke="none"/>
      <text x="593.6805" xml:space="preserve" y="-177.9467" clip-path="url(#clipPath2)" font-family="sans-serif" stroke="none">46</text>
      <path fill="none" d="M727 -161 L757.5 -161 L757.5 -125.5 L893.86 -125.5 L893.86 -90 L916.3302 -90" clip-path="url(#clipPath2)"/>
      <path d="M924.3302 -90 L912.3302 -95 L915.3302 -90 L912.3302 -85 Z" clip-path="url(#clipPath2)" stroke="none"/>
      <text x="734" xml:space="preserve" y="-145.6467" clip-path="url(#clipPath2)" font-family="sans-serif" stroke="none">22</text>
      <path fill="none" d="M727 -80 L779.9702 -80" clip-path="url(#clipPath2)"/>
      <path d="M787.9702 -80 L775.9702 -85 L778.9702 -80 L775.9702 -75 Z" clip-path="url(#clipPath2)" stroke="none"/>
      <text x="743.4823" xml:space="preserve" y="-86.6489" clip-path="url(#clipPath2)" font-family="sans-serif" stroke="none">38</text>
      <path fill="none" d="M863.3898 -80 L916.3302 -80" clip-path="url(#clipPath2)"/>
      <path d="M924.3302 -80 L912.3302 -85 L915.3302 -80 L912.3302 -75 Z" clip-path="url(#clipPath2)" stroke="none"/>
      <text x="869.5466" xml:space="preserve" y="-64.3114" clip-path="url(#clipPath2)" font-family="sans-serif" stroke="none">23</text>
      <path fill="none" d="M727 -65 L757.5 -65 L757.5 -30 L779.9702 -30" clip-path="url(#clipPath2)"/>
      <path d="M787.9702 -30 L775.9702 -35 L778.9702 -30 L775.9702 -25 Z" clip-path="url(#clipPath2)" stroke="none"/>
      <text x="739.6784" xml:space="preserve" y="-50.8005" clip-path="url(#clipPath2)" font-family="sans-serif" stroke="none">44</text>
      <path fill="none" d="M863.3898 -30 L893.86 -30 L893.86 -70 L916.3302 -70" clip-path="url(#clipPath2)"/>
      <path d="M924.3302 -70 L912.3302 -75 L915.3302 -70 L912.3302 -65 Z" clip-path="url(#clipPath2)" stroke="none"/>
      <text x="872.1666" xml:space="preserve" y="-35.4576" clip-path="url(#clipPath2)" font-family="sans-serif" stroke="none">32</text>
      <path fill="none" d="M727 -181 L757.5 -181 L757.5 -221 L787.6427 -221" clip-path="url(#clipPath2)"/>
      <path d="M795.6427 -221 L783.6427 -226 L786.6427 -221 L783.6427 -216 Z" clip-path="url(#clipPath2)" stroke="none"/>
      <text x="735.1273" xml:space="preserve" y="-192.5097" clip-path="url(#clipPath2)" font-family="sans-serif" stroke="none">36</text>
      <path fill="none" d="M727 -171 L787.6465 -171" clip-path="url(#clipPath2)"/>
      <path d="M795.6465 -171 L783.6465 -176 L786.6465 -171 L783.6465 -166 Z" clip-path="url(#clipPath2)" stroke="none"/>
      <text x="768.3865" xml:space="preserve" y="-179.9497" clip-path="url(#clipPath2)" font-family="sans-serif" stroke="none">40</text>
    </g>
  </g>
</svg>
