<?xml version="1.0" encoding="UTF-8"?><svg xmlns="http://www.w3.org/2000/svg" xmlns:xlink="http://www.w3.org/1999/xlink" fill-opacity="1" color-rendering="auto" color-interpolation="auto" text-rendering="auto" stroke="black" stroke-linecap="square" width="260" stroke-miterlimit="10" shape-rendering="auto" stroke-opacity="1" fill="black" stroke-dasharray="none" font-weight="normal" stroke-width="1" height="318" font-family="'Dialog'" font-style="normal" stroke-linejoin="miter" font-size="12px" stroke-dashoffset="0" image-rendering="auto">
  <!--Generated by ySVG 2.5-->
  <defs id="genericDefs"/>
  <g>
    <defs id="defs1">
      <clipPath clipPathUnits="userSpaceOnUse" id="clipPath1">
        <path d="M0 0 L260 0 L260 318 L0 318 L0 0 Z"/>
      </clipPath>
      <clipPath clipPathUnits="userSpaceOnUse" id="clipPath2">
        <path d="M0 24 L260 24 L260 342 L0 342 L0 24 Z"/>
      </clipPath>
    </defs>
    <g fill="white" text-rendering="geometricPrecision" shape-rendering="geometricPrecision" transform="translate(0,-24)" stroke="white">
      <rect x="0" width="260" height="318" y="24" clip-path="url(#clipPath2)" stroke="none"/>
    </g>
    <g fill="rgb(255,204,0)" text-rendering="geometricPrecision" shape-rendering="geometricPrecision" transform="matrix(1,0,0,1,0,-24)" stroke="rgb(255,204,0)">
      <circle r="20" clip-path="url(#clipPath2)" cx="41.224" cy="306.92" stroke="none"/>
    </g>
    <g text-rendering="geometricPrecision" stroke-miterlimit="1.45" shape-rendering="geometricPrecision" transform="matrix(1,0,0,1,0,-24)" stroke-linecap="butt">
      <circle fill="none" r="20" clip-path="url(#clipPath2)" cx="41.224" cy="306.92"/>
      <text x="24.223" xml:space="preserve" y="311.0743" clip-path="url(#clipPath2)" font-family="sans-serif" stroke="none">Rusty</text>
    </g>
    <g fill="rgb(255,204,0)" text-rendering="geometricPrecision" shape-rendering="geometricPrecision" transform="matrix(1,0,0,1,0,-24)" stroke="rgb(255,204,0)">
      <circle r="20" clip-path="url(#clipPath2)" cx="107" cy="229" stroke="none"/>
    </g>
    <g text-rendering="geometricPrecision" stroke-miterlimit="1.45" shape-rendering="geometricPrecision" transform="matrix(1,0,0,1,0,-24)" stroke-linecap="butt">
      <circle fill="none" r="20" clip-path="url(#clipPath2)" cx="107" cy="229"/>
      <text x="89.8818" xml:space="preserve" y="233.1543" clip-path="url(#clipPath2)" font-family="sans-serif" stroke="none">Robin</text>
    </g>
    <g fill="rgb(255,204,0)" text-rendering="geometricPrecision" shape-rendering="geometricPrecision" transform="matrix(1,0,0,1,0,-24)" stroke="rgb(255,204,0)">
      <circle r="20" clip-path="url(#clipPath2)" cx="177" cy="306.92" stroke="none"/>
    </g>
    <g text-rendering="geometricPrecision" stroke-miterlimit="1.45" shape-rendering="geometricPrecision" transform="matrix(1,0,0,1,0,-24)" stroke-linecap="butt">
      <circle fill="none" r="20" clip-path="url(#clipPath2)" cx="177" cy="306.92"/>
      <text x="165.3311" xml:space="preserve" y="311.0743" clip-path="url(#clipPath2)" font-family="sans-serif" stroke="none">Red</text>
    </g>
    <g fill="rgb(255,204,0)" text-rendering="geometricPrecision" shape-rendering="geometricPrecision" transform="matrix(1,0,0,1,0,-24)" stroke="rgb(255,204,0)">
      <circle r="20" clip-path="url(#clipPath2)" cx="107" cy="148" stroke="none"/>
    </g>
    <g text-rendering="geometricPrecision" stroke-miterlimit="1.45" shape-rendering="geometricPrecision" transform="matrix(1,0,0,1,0,-24)" stroke-linecap="butt">
      <circle fill="none" r="20" clip-path="url(#clipPath2)" cx="107" cy="148"/>
      <text x="94.9414" xml:space="preserve" y="152.1543" clip-path="url(#clipPath2)" font-family="sans-serif" stroke="none">Bird</text>
    </g>
    <g fill="rgb(255,204,0)" text-rendering="geometricPrecision" shape-rendering="geometricPrecision" transform="matrix(1,0,0,1,0,-24)" stroke="rgb(255,204,0)">
      <circle r="20" clip-path="url(#clipPath2)" cx="107" cy="59.16" stroke="none"/>
    </g>
    <g text-rendering="geometricPrecision" stroke-miterlimit="1.45" shape-rendering="geometricPrecision" transform="matrix(1,0,0,1,0,-24)" stroke-linecap="butt">
      <circle fill="none" r="20" clip-path="url(#clipPath2)" cx="107" cy="59.16"/>
      <text x="87.9675" font-size="11px" y="62.9681" clip-path="url(#clipPath2)" font-family="sans-serif" stroke="none" xml:space="preserve">Animal</text>
    </g>
    <g fill="rgb(255,204,0)" text-rendering="geometricPrecision" shape-rendering="geometricPrecision" transform="matrix(1,0,0,1,0,-24)" stroke="rgb(255,204,0)">
      <circle r="20" clip-path="url(#clipPath2)" cx="197" cy="148" stroke="none"/>
    </g>
    <g text-rendering="geometricPrecision" stroke-miterlimit="1.45" shape-rendering="geometricPrecision" transform="matrix(1,0,0,1,0,-24)" stroke-linecap="butt">
      <circle fill="none" r="20" clip-path="url(#clipPath2)" cx="197" cy="148"/>
      <text x="181.7891" xml:space="preserve" y="152.1543" clip-path="url(#clipPath2)" font-family="sans-serif" stroke="none">Wing</text>
    </g>
    <g fill="rgb(255,204,0)" text-rendering="geometricPrecision" shape-rendering="geometricPrecision" transform="matrix(1,0,0,1,0,-24)" stroke="rgb(255,204,0)">
      <circle r="20" clip-path="url(#clipPath2)" cx="197" cy="59.16" stroke="none"/>
    </g>
    <g text-rendering="geometricPrecision" stroke-miterlimit="1.45" shape-rendering="geometricPrecision" transform="matrix(1,0,0,1,0,-24)" stroke-linecap="butt">
      <circle fill="none" r="20" clip-path="url(#clipPath2)" cx="197" cy="59.16"/>
      <text x="177.8153" xml:space="preserve" y="63.3143" clip-path="url(#clipPath2)" font-family="sans-serif" stroke="none">Vertebrate</text>
      <path fill="none" d="M54.125 291.6372 L88.9386 250.396" clip-path="url(#clipPath2)"/>
      <path d="M94.099 244.2828 L82.5377 250.2273 L88.2936 251.1601 L90.1792 256.6778 Z" clip-path="url(#clipPath2)" stroke="none"/>
      <text x="17.7673" xml:space="preserve" y="262.2428" clip-path="url(#clipPath2)" font-family="sans-serif" stroke="none">instance</text>
      <path fill="none" d="M163.6342 292.042 L125.7121 249.8292" clip-path="url(#clipPath2)"/>
      <path d="M120.3658 243.878 L124.6657 256.1463 L126.3804 250.5732 L132.1048 249.4634 Z" clip-path="url(#clipPath2)" stroke="none"/>
      <text x="155.9319" xml:space="preserve" y="271.0256" clip-path="url(#clipPath2)" font-family="sans-serif" stroke="none">instance</text>
      <path fill="none" d="M107 209 L107 176" clip-path="url(#clipPath2)"/>
      <path d="M107 168 L102 180 L107 177 L112 180 Z" clip-path="url(#clipPath2)" stroke="none"/>
      <text x="51.3682" xml:space="preserve" y="199.1699" clip-path="url(#clipPath2)" font-family="sans-serif" stroke="none">subclass</text>
      <path fill="none" d="M107 128 L107 87.16" clip-path="url(#clipPath2)"/>
      <path d="M107 79.16 L102 91.16 L107 88.16 L112 91.16 Z" clip-path="url(#clipPath2)" stroke="none"/>
      <text x="51.3682" xml:space="preserve" y="107.7343" clip-path="url(#clipPath2)" font-family="sans-serif" stroke="none">subclass</text>
      <path fill="none" d="M127 148 L169 148" clip-path="url(#clipPath2)"/>
      <path d="M177 148 L165 143 L168 148 L165 153 Z" clip-path="url(#clipPath2)" stroke="none"/>
      <text x="126.1586" xml:space="preserve" y="164.7463" clip-path="url(#clipPath2)" font-family="sans-serif" stroke="none">has part</text>
      <path fill="none" d="M121.2336 133.9499 L177.073 78.8302" clip-path="url(#clipPath2)"/>
      <path d="M182.7664 73.2101 L170.7138 78.0818 L176.3613 79.5327 L177.7388 85.1986 Z" clip-path="url(#clipPath2)" stroke="none"/>
      <text x="151.0913" xml:space="preserve" y="112.7469" clip-path="url(#clipPath2)" font-family="sans-serif" stroke="none">subclass</text>
    </g>
  </g>
</svg>
