<?xml version="1.0" encoding="UTF-8"?><svg xmlns="http://www.w3.org/2000/svg" xmlns:xlink="http://www.w3.org/1999/xlink" fill-opacity="1" color-rendering="auto" color-interpolation="auto" text-rendering="auto" stroke="black" stroke-linecap="square" width="683" stroke-miterlimit="10" shape-rendering="auto" stroke-opacity="1" fill="black" stroke-dasharray="none" font-weight="normal" stroke-width="1" height="185" font-family="'Dialog'" font-style="normal" stroke-linejoin="miter" font-size="12px" stroke-dashoffset="0" image-rendering="auto">
  <!--Generated by ySVG 2.5-->
  <defs id="genericDefs"/>
  <g>
    <defs id="defs1">
      <clipPath clipPathUnits="userSpaceOnUse" id="clipPath1">
        <path d="M0 0 L683 0 L683 185 L0 185 L0 0 Z"/>
      </clipPath>
      <clipPath clipPathUnits="userSpaceOnUse" id="clipPath2">
        <path d="M5 -47 L688 -47 L688 138 L5 138 L5 -47 Z"/>
      </clipPath>
    </defs>
    <g fill="white" text-rendering="geometricPrecision" shape-rendering="geometricPrecision" transform="translate(-5,47)" stroke="white">
      <rect x="5" width="683" height="185" y="-47" clip-path="url(#clipPath2)" stroke="none"/>
    </g>
    <g fill="rgb(153,204,0)" text-rendering="geometricPrecision" shape-rendering="geometricPrecision" transform="matrix(1,0,0,1,-5,47)" stroke="rgb(153,204,0)">
      <rect x="440" width="40" height="30" y="0" clip-path="url(#clipPath2)" stroke="none"/>
    </g>
    <g text-rendering="geometricPrecision" stroke-miterlimit="1.45" shape-rendering="geometricPrecision" transform="matrix(1,0,0,1,-5,47)" stroke-linecap="butt">
      <rect fill="none" x="440" width="40" height="30" y="0" clip-path="url(#clipPath2)"/>
      <text x="442.7207" xml:space="preserve" y="19.1543" clip-path="url(#clipPath2)" font-family="sans-serif" stroke="none">ROOT</text>
    </g>
    <g fill="rgb(255,204,0)" text-rendering="geometricPrecision" shape-rendering="geometricPrecision" transform="matrix(1,0,0,1,-5,47)" stroke="rgb(255,204,0)">
      <rect x="80" width="30" height="30" y="0" clip-path="url(#clipPath2)" stroke="none"/>
    </g>
    <g text-rendering="geometricPrecision" stroke-miterlimit="1.45" shape-rendering="geometricPrecision" transform="matrix(1,0,0,1,-5,47)" stroke-linecap="butt">
      <rect fill="none" x="80" width="30" height="30" y="0" clip-path="url(#clipPath2)"/>
      <text x="91.1826" xml:space="preserve" y="19.1543" clip-path="url(#clipPath2)" font-family="sans-serif" stroke="none">2</text>
    </g>
    <g fill="rgb(255,204,0)" text-rendering="geometricPrecision" shape-rendering="geometricPrecision" transform="matrix(1,0,0,1,-5,47)" stroke="rgb(255,204,0)">
      <rect x="140" width="30" height="30" y="0" clip-path="url(#clipPath2)" stroke="none"/>
    </g>
    <g text-rendering="geometricPrecision" stroke-miterlimit="1.45" shape-rendering="geometricPrecision" transform="matrix(1,0,0,1,-5,47)" stroke-linecap="butt">
      <rect fill="none" x="140" width="30" height="30" y="0" clip-path="url(#clipPath2)"/>
      <text x="151.1826" xml:space="preserve" y="19.1543" clip-path="url(#clipPath2)" font-family="sans-serif" stroke="none">3</text>
    </g>
    <g fill="rgb(255,204,0)" text-rendering="geometricPrecision" shape-rendering="geometricPrecision" transform="matrix(1,0,0,1,-5,47)" stroke="rgb(255,204,0)">
      <rect x="320" width="30" height="30" y="0" clip-path="url(#clipPath2)" stroke="none"/>
    </g>
    <g text-rendering="geometricPrecision" stroke-miterlimit="1.45" shape-rendering="geometricPrecision" transform="matrix(1,0,0,1,-5,47)" stroke-linecap="butt">
      <rect fill="none" x="320" width="30" height="30" y="0" clip-path="url(#clipPath2)"/>
      <text x="331.1826" xml:space="preserve" y="19.1543" clip-path="url(#clipPath2)" font-family="sans-serif" stroke="none">4</text>
    </g>
    <g fill="rgb(255,204,0)" text-rendering="geometricPrecision" shape-rendering="geometricPrecision" transform="matrix(1,0,0,1,-5,47)" stroke="rgb(255,204,0)">
      <rect x="260" width="30" height="30" y="0" clip-path="url(#clipPath2)" stroke="none"/>
    </g>
    <g text-rendering="geometricPrecision" stroke-miterlimit="1.45" shape-rendering="geometricPrecision" transform="matrix(1,0,0,1,-5,47)" stroke-linecap="butt">
      <rect fill="none" x="260" width="30" height="30" y="0" clip-path="url(#clipPath2)"/>
      <text x="271.1826" xml:space="preserve" y="19.1543" clip-path="url(#clipPath2)" font-family="sans-serif" stroke="none">5</text>
    </g>
    <g fill="rgb(255,204,0)" text-rendering="geometricPrecision" shape-rendering="geometricPrecision" transform="matrix(1,0,0,1,-5,47)" stroke="rgb(255,204,0)">
      <rect x="312.5" width="30" height="30" y="61" clip-path="url(#clipPath2)" stroke="none"/>
    </g>
    <g text-rendering="geometricPrecision" stroke-miterlimit="1.45" shape-rendering="geometricPrecision" transform="matrix(1,0,0,1,-5,47)" stroke-linecap="butt">
      <rect fill="none" x="312.5" width="30" height="30" y="61" clip-path="url(#clipPath2)"/>
      <text x="323.6826" xml:space="preserve" y="80.1543" clip-path="url(#clipPath2)" font-family="sans-serif" stroke="none">6</text>
    </g>
    <g fill="rgb(255,204,0)" text-rendering="geometricPrecision" shape-rendering="geometricPrecision" transform="matrix(1,0,0,1,-5,47)" stroke="rgb(255,204,0)">
      <rect x="200" width="30" height="30" y="0" clip-path="url(#clipPath2)" stroke="none"/>
    </g>
    <g text-rendering="geometricPrecision" stroke-miterlimit="1.45" shape-rendering="geometricPrecision" transform="matrix(1,0,0,1,-5,47)" stroke-linecap="butt">
      <rect fill="none" x="200" width="30" height="30" y="0" clip-path="url(#clipPath2)"/>
      <text x="211.1826" xml:space="preserve" y="19.1543" clip-path="url(#clipPath2)" font-family="sans-serif" stroke="none">7</text>
    </g>
    <g fill="rgb(255,204,0)" text-rendering="geometricPrecision" shape-rendering="geometricPrecision" transform="matrix(1,0,0,1,-5,47)" stroke="rgb(255,204,0)">
      <rect x="462.5" width="30" height="30" y="61" clip-path="url(#clipPath2)" stroke="none"/>
    </g>
    <g text-rendering="geometricPrecision" stroke-miterlimit="1.45" shape-rendering="geometricPrecision" transform="matrix(1,0,0,1,-5,47)" stroke-linecap="butt">
      <rect fill="none" x="462.5" width="30" height="30" y="61" clip-path="url(#clipPath2)"/>
      <text x="473.6826" xml:space="preserve" y="80.1543" clip-path="url(#clipPath2)" font-family="sans-serif" stroke="none">8</text>
    </g>
    <g fill="rgb(255,204,0)" text-rendering="geometricPrecision" shape-rendering="geometricPrecision" transform="matrix(1,0,0,1,-5,47)" stroke="rgb(255,204,0)">
      <rect x="20" width="30" height="30" y="0" clip-path="url(#clipPath2)" stroke="none"/>
    </g>
    <g text-rendering="geometricPrecision" stroke-miterlimit="1.45" shape-rendering="geometricPrecision" transform="matrix(1,0,0,1,-5,47)" stroke-linecap="butt">
      <rect fill="none" x="20" width="30" height="30" y="0" clip-path="url(#clipPath2)"/>
      <text x="31.1826" xml:space="preserve" y="19.1543" clip-path="url(#clipPath2)" font-family="sans-serif" stroke="none">9</text>
    </g>
    <g fill="rgb(255,204,0)" text-rendering="geometricPrecision" shape-rendering="geometricPrecision" transform="matrix(1,0,0,1,-5,47)" stroke="rgb(255,204,0)">
      <rect x="380" width="30" height="30" y="0" clip-path="url(#clipPath2)" stroke="none"/>
    </g>
    <g text-rendering="geometricPrecision" stroke-miterlimit="1.45" shape-rendering="geometricPrecision" transform="matrix(1,0,0,1,-5,47)" stroke-linecap="butt">
      <rect fill="none" x="380" width="30" height="30" y="0" clip-path="url(#clipPath2)"/>
      <text x="387.3652" xml:space="preserve" y="19.1543" clip-path="url(#clipPath2)" font-family="sans-serif" stroke="none">10</text>
    </g>
    <g fill="rgb(255,204,0)" text-rendering="geometricPrecision" shape-rendering="geometricPrecision" transform="matrix(1,0,0,1,-5,47)" stroke="rgb(255,204,0)">
      <rect x="642.5" width="30" height="30" y="61" clip-path="url(#clipPath2)" stroke="none"/>
    </g>
    <g text-rendering="geometricPrecision" stroke-miterlimit="1.45" shape-rendering="geometricPrecision" transform="matrix(1,0,0,1,-5,47)" stroke-linecap="butt">
      <rect fill="none" x="642.5" width="30" height="30" y="61" clip-path="url(#clipPath2)"/>
      <text x="649.8652" xml:space="preserve" y="80.1543" clip-path="url(#clipPath2)" font-family="sans-serif" stroke="none">11</text>
    </g>
    <g fill="rgb(255,204,0)" text-rendering="geometricPrecision" shape-rendering="geometricPrecision" transform="matrix(1,0,0,1,-5,47)" stroke="rgb(255,204,0)">
      <rect x="20" width="30" height="30" y="61" clip-path="url(#clipPath2)" stroke="none"/>
    </g>
    <g text-rendering="geometricPrecision" stroke-miterlimit="1.45" shape-rendering="geometricPrecision" transform="matrix(1,0,0,1,-5,47)" stroke-linecap="butt">
      <rect fill="none" x="20" width="30" height="30" y="61" clip-path="url(#clipPath2)"/>
      <text x="27.3652" xml:space="preserve" y="80.1543" clip-path="url(#clipPath2)" font-family="sans-serif" stroke="none">12</text>
    </g>
    <g fill="rgb(255,204,0)" text-rendering="geometricPrecision" shape-rendering="geometricPrecision" transform="matrix(1,0,0,1,-5,47)" stroke="rgb(255,204,0)">
      <rect x="582.5" width="30" height="30" y="61" clip-path="url(#clipPath2)" stroke="none"/>
    </g>
    <g text-rendering="geometricPrecision" stroke-miterlimit="1.45" shape-rendering="geometricPrecision" transform="matrix(1,0,0,1,-5,47)" stroke-linecap="butt">
      <rect fill="none" x="582.5" width="30" height="30" y="61" clip-path="url(#clipPath2)"/>
      <text x="589.8652" xml:space="preserve" y="80.1543" clip-path="url(#clipPath2)" font-family="sans-serif" stroke="none">13</text>
    </g>
    <g fill="rgb(255,204,0)" text-rendering="geometricPrecision" shape-rendering="geometricPrecision" transform="matrix(1,0,0,1,-5,47)" stroke="rgb(255,204,0)">
      <rect x="200" width="30" height="30" y="61" clip-path="url(#clipPath2)" stroke="none"/>
    </g>
    <g text-rendering="geometricPrecision" stroke-miterlimit="1.45" shape-rendering="geometricPrecision" transform="matrix(1,0,0,1,-5,47)" stroke-linecap="butt">
      <rect fill="none" x="200" width="30" height="30" y="61" clip-path="url(#clipPath2)"/>
      <text x="207.3652" xml:space="preserve" y="80.1543" clip-path="url(#clipPath2)" font-family="sans-serif" stroke="none">14</text>
    </g>
    <g fill="rgb(255,204,0)" text-rendering="geometricPrecision" shape-rendering="geometricPrecision" transform="matrix(1,0,0,1,-5,47)" stroke="rgb(255,204,0)">
      <rect x="522.5" width="30" height="30" y="61" clip-path="url(#clipPath2)" stroke="none"/>
    </g>
    <g text-rendering="geometricPrecision" stroke-miterlimit="1.45" shape-rendering="geometricPrecision" transform="matrix(1,0,0,1,-5,47)" stroke-linecap="butt">
      <rect fill="none" x="522.5" width="30" height="30" y="61" clip-path="url(#clipPath2)"/>
      <text x="529.8652" xml:space="preserve" y="80.1543" clip-path="url(#clipPath2)" font-family="sans-serif" stroke="none">15</text>
      <path fill="none" d="M460 -0.0308 L460 -31.5 L87.5 -31.5 L87.5 -0.0308" clip-path="url(#clipPath2)"/>
      <path fill="none" d="M110 15 L139.9707 15" clip-path="url(#clipPath2)"/>
      <path fill="none" d="M450 30 L450 45.5 L342.5 45.5 L342.5 30" clip-path="url(#clipPath2)"/>
      <path fill="none" d="M102.5 -0.0303 L102.5 -15.5 L335 -15.5 L335 -0.0303" clip-path="url(#clipPath2)"/>
      <path fill="none" d="M319.9707 15 L290 15" clip-path="url(#clipPath2)"/>
      <path fill="none" d="M327.5 30 L327.5 60.9697" clip-path="url(#clipPath2)"/>
      <path fill="none" d="M170 15 L199.9707 15" clip-path="url(#clipPath2)"/>
      <path fill="none" d="M259.9707 15 L230 15" clip-path="url(#clipPath2)"/>
      <path fill="none" d="M470 30 L470 60.9697" clip-path="url(#clipPath2)"/>
      <path fill="none" d="M79.9707 15 L50 15" clip-path="url(#clipPath2)"/>
      <path fill="none" d="M350 15 L379.9707 15" clip-path="url(#clipPath2)"/>
      <path fill="none" d="M485 60.9697 L485 45.5 L657.5 45.5 L657.5 60.9697" clip-path="url(#clipPath2)"/>
      <path fill="none" d="M327.5 91 L327.5 106.5 L35 106.5 L35 91" clip-path="url(#clipPath2)"/>
      <path fill="none" d="M35 30 L35 60.9697" clip-path="url(#clipPath2)"/>
      <path fill="none" d="M642.4707 76 L612.5 76" clip-path="url(#clipPath2)"/>
      <path fill="none" d="M597.5 91 L597.5 122.5 L215 122.5 L215 91" clip-path="url(#clipPath2)"/>
      <path fill="none" d="M199.9634 76 L50 76" clip-path="url(#clipPath2)"/>
      <path fill="none" d="M215 60.9697 L215 30" clip-path="url(#clipPath2)"/>
      <path fill="none" d="M492.5 76 L522.4707 76" clip-path="url(#clipPath2)"/>
      <path fill="none" d="M552.5 76 L582.4707 76" clip-path="url(#clipPath2)"/>
    </g>
  </g>
</svg>
